<?xml version="1.0" standalone="no"?>
<!DOCTYPE svg PUBLIC "-//W3C//DTD SVG 20010904//EN"
 "http://www.w3.org/TR/2001/REC-SVG-20010904/DTD/svg10.dtd">
<svg version="1.0" xmlns="http://www.w3.org/2000/svg"
 width="200.000000pt" height="200.000000pt" viewBox="0 0 200.000000 200.000000"
 preserveAspectRatio="xMidYMid meet">

<g transform="translate(0.000000,200.000000) scale(0.100000,-0.100000)"
fill="#000000" stroke="none">
<path d="M960 1521 c0 -43 32 -111 71 -150 57 -57 121 -81 217 -81 l82 0 0
-82 c0 -95 21 -152 73 -206 35 -37 101 -71 153 -79 l34 -6 0 300 c0 278 -1
301 -18 316 -16 15 -53 17 -315 17 l-297 0 0 -29z"/>
<path d="M864 1253 l-202 -3 10 -43 c10 -47 46 -113 74 -139 11 -9 42 -28 70
-42 44 -22 66 -26 137 -26 l84 0 5 -99 c5 -111 19 -142 87 -204 51 -46 66 -54
124 -62 l47 -7 0 294 c0 238 -3 298 -14 314 -16 22 -53 23 -422 17z"/>
<path d="M376 923 c3 -21 15 -56 26 -78 47 -95 120 -136 256 -143 l92 -5 0
-75 c0 -41 5 -92 12 -114 23 -78 116 -155 206 -172 l32 -6 -2 313 -3 312 -313
3 -313 2 7 -37z"/>
</g>
</svg>
