<?xml version="1.0" encoding="UTF-8"?>
<svg version="1.1" xmlns="http://www.w3.org/2000/svg" width="597" height="418">
<path d="M0 0 C1.0003125 0.47695312 2.000625 0.95390625 3.03125 1.4453125 C8.11695513 3.90175745 12.7789566 6.17949356 17 10 C17 10.66 17 11.32 17 12 C17.99 12 18.98 12 20 12 C21.29869991 13.4610374 22.59183162 14.93041069 23.79296875 16.47265625 C25.02694653 18.10408704 25.02694653 18.10408704 26.8125 19.75 C28 21 28 21 28 23 C28.99 23.33 29.98 23.66 31 24 C32.17578125 25.6796875 32.17578125 25.6796875 33.3125 27.875 C33.73917969 28.68453125 34.16585937 29.4940625 34.60546875 30.328125 C35.06566406 31.20984375 35.52585937 32.0915625 36 33 C37.04010918 34.87586442 38.08179518 36.75085536 39.125 38.625 C46.02315991 51.04168784 51.04615031 67.40053496 47.30859375 81.6328125 C45.25406396 86.84220602 42.79849027 90.10279833 38 93 C33.20923227 94.45357226 30.11631729 94.57883119 25.625 92.25 C17.17749984 85.00928558 16.01007353 75.40999303 14.0625 64.8125 C12.7318794 57.79186151 11.49662526 51.73667397 7 46 C6.39671875 45.18660156 5.7934375 44.37320313 5.171875 43.53515625 C-2.74580224 33.78468335 -14.45406101 26.72232271 -27 25 C-38.62878895 24.10645969 -49.88073943 24.91822218 -60 31 C-60.99 31 -61.98 31 -63 31 C-63 31.66 -63 32.32 -63 33 C-64.4195922 33.91259499 -65.84119314 34.82223648 -67.2734375 35.71484375 C-69.86701719 37.64535895 -71.72179419 40.07412374 -73.703125 42.609375 C-74.13109375 43.06828125 -74.5590625 43.5271875 -75 44 C-75.66 44 -76.32 44 -77 44 C-77.11472656 44.56460938 -77.22945313 45.12921875 -77.34765625 45.7109375 C-78.07454435 48.2615748 -79.16220615 50.30146758 -80.4375 52.625 C-86.75137488 65.16150879 -86.4297437 79.70760036 -83 93.11328125 C-81.78886152 96.60949741 -80.18338768 99.44840248 -77.98828125 102.4140625 C-77 104 -77 104 -77 107 C-76.01 107.33 -75.02 107.66 -74 108 C-71.8125 109.9375 -71.8125 109.9375 -70 112 C-70 112.66 -70 113.32 -70 114 C-69.43539062 114.268125 -68.87078125 114.53625 -68.2890625 114.8125 C-65.87038235 116.06724192 -63.65745333 117.51305972 -61.375 119 C-49.42389979 126.09812455 -33.70870382 125.17714242 -20.1640625 124.91796875 C-19.19758789 124.90233887 -18.23111328 124.88670898 -17.23535156 124.87060547 C-15.38524684 124.83302226 -13.53538343 124.77727453 -11.68652344 124.69970703 C-4.04605454 124.5376017 2.13813919 126.60932426 8.625 130.625 C10.87442825 134.51037608 10.30094513 138.61957647 10 143 C9.34 143 8.68 143 8 143 C7.67 143.99 7.34 144.98 7 146 C-3.32294646 155.68826259 -22.30819824 158.37102087 -36 159 C-39.39264702 158.87643776 -42.70479073 158.49170544 -46.0625 158 C-46.96645508 157.86827393 -47.87041016 157.73654785 -48.80175781 157.60083008 C-61.30195016 155.54929693 -72.93163561 150.73106552 -83 143 C-83.7321875 142.49082031 -84.464375 141.98164063 -85.21875 141.45703125 C-91.61234294 136.84795141 -96.27006578 131.26326455 -101 125 C-101.96292969 123.74123047 -101.96292969 123.74123047 -102.9453125 122.45703125 C-112.46642727 109.49430141 -117.44948123 94.05679751 -118 78 C-118.0515625 76.97390625 -118.103125 75.9478125 -118.15625 74.890625 C-118.75053182 54.18980827 -110.02074849 34.78034607 -97.015625 19.046875 C-95 17 -95 17 -92 16 C-91.74734375 15.41347656 -91.4946875 14.82695312 -91.234375 14.22265625 C-89.39111963 10.90362998 -86.40432792 9.36985171 -83.25 7.4375 C-82.6415625 7.05142578 -82.033125 6.66535156 -81.40625 6.26757812 C-72.11468421 0.44049573 -62.62885722 -3.42593662 -52 -6 C-51.14535156 -6.20882812 -50.29070312 -6.41765625 -49.41015625 -6.6328125 C-32.39613079 -10.2658826 -15.4766542 -7.90181288 0 0 Z " fill="#5593F6" transform="translate(336,135)"/>
<path d="M0 0 C0.66 0 1.32 0 2 0 C1.74069171 1.54364699 1.46690524 3.0848638 1.1875 4.625 C0.96126953 5.91277344 0.96126953 5.91277344 0.73046875 7.2265625 C0 10 0 10 -1.421875 12.828125 C-3.2574703 16.51748981 -4.34044405 20.16755499 -5.4375 24.125 C-5.87087258 25.63845784 -6.30577757 27.15147769 -6.7421875 28.6640625 C-6.95456055 29.40172852 -7.16693359 30.13939453 -7.38574219 30.89941406 C-9.2160843 37.15866029 -11.20001186 43.28520243 -13.90234375 49.22265625 C-16.06880696 54.03423736 -17.80609197 58.94346621 -19.5 63.9375 C-23.13226707 74.49728675 -23.13226707 74.49728675 -25.0625 79.125 C-27.26903205 84.45111185 -29.01985669 89.92901955 -30.80688477 95.40673828 C-32.41506696 100.32239541 -34.14851139 105.17095656 -36 110 C-44.66876578 131.57952702 -44.66876578 131.57952702 -42.7578125 153.9296875 C-40.87644418 157.15890178 -38.9896983 160.03987889 -36.30078125 162.6484375 C-35 164 -35 164 -35 166 C-34.34 166 -33.68 166 -33 166 C-31.7109375 167.42578125 -31.7109375 167.42578125 -30.375 169.3125 C-29.92898438 169.92738281 -29.48296875 170.54226563 -29.0234375 171.17578125 C-28 173 -28 173 -28 176 C-27.34 176 -26.68 176 -26 176 C-26 176.99 -26 177.98 -26 179 C-29.65961153 178.19974097 -33.06844709 176.9020857 -36.5625 175.5625 C-37.69816406 175.13066406 -38.83382812 174.69882812 -40.00390625 174.25390625 C-43 173 -43 173 -46 171 C-46 170.34 -46 169.68 -46 169 C-46.7425 168.87625 -47.485 168.7525 -48.25 168.625 C-51 168 -51 168 -52.89453125 166.98046875 C-56.49306026 165.30471591 -60.11324767 165.54805205 -64 166 C-67.83601761 167.66783374 -69.58871637 169.67013213 -72 173 C-72.66 173 -73.32 173 -74 173 C-74 173.66 -74 174.32 -74 175 C-75.57421875 176.55078125 -75.57421875 176.55078125 -77.6875 178.3125 C-80.19428308 180.42953589 -82.57642365 182.53680454 -84.8125 184.9375 C-87 187 -87 187 -90 187 C-89.56668305 182.45017201 -89.08051097 178.1136276 -87.9375 173.6875 C-86.14381433 165.855529 -85.60994307 157.91498145 -89.7890625 150.81640625 C-90.18867188 150.21699219 -90.58828125 149.61757813 -91 149 C-91.42023438 148.34902344 -91.84046875 147.69804687 -92.2734375 147.02734375 C-94.29923736 144.03775425 -95.97253653 142.01830898 -99 140 C-99 139.34 -99 138.68 -99 138 C-99.99 137.67 -100.98 137.34 -102 137 C-104.1875 135.0625 -104.1875 135.0625 -106 133 C-106 132.34 -106 131.68 -106 131 C-106.99 131 -107.98 131 -109 131 C-109 130.34 -109 129.68 -109 129 C-109.721875 128.7421875 -110.44375 128.484375 -111.1875 128.21875 C-114.1463554 126.93657933 -116.41508642 125.42292351 -119 123.5 C-119.9590625 122.7884375 -120.918125 122.076875 -121.90625 121.34375 C-125.67223738 118.49072926 -129.41801568 115.6125233 -133.15332031 112.71948242 C-136.64304181 110.02236107 -140.17376329 107.39478265 -143.75 104.8125 C-147.25091437 102.2780642 -150.7408029 99.73287534 -154.1875 97.125 C-154.92355469 96.57070312 -155.65960938 96.01640625 -156.41796875 95.4453125 C-156.94003906 94.96835938 -157.46210938 94.49140625 -158 94 C-158 93.34 -158 92.68 -158 92 C-159.32 91.67 -160.64 91.34 -162 91 C-162 90.34 -162 89.68 -162 89 C-162.66 89 -163.32 89 -164 89 C-163.67 88.01 -163.34 87.02 -163 86 C-154.58411434 88.25425509 -147.52337196 92.46917636 -140.05297852 96.81835938 C-137.95353393 98.02674465 -135.8372026 99.19956975 -133.71484375 100.3671875 C-128.26461158 103.38313088 -122.91634354 106.56702021 -117.5625 109.75 C-115.60582303 110.91205507 -113.6488091 112.07354304 -111.69140625 113.234375 C-110.83748291 113.74194336 -109.98355957 114.24951172 -109.10375977 114.77246094 C-107.75942899 115.5568749 -106.39212945 116.30393528 -105 117 C-105 117.66 -105 118.32 -105 119 C-103.99259766 119.36738281 -103.99259766 119.36738281 -102.96484375 119.7421875 C-100.67668254 120.71292256 -98.65115602 121.72245231 -96.50390625 122.9453125 C-87.87366816 127.78433983 -80.12366683 131.51411115 -70 129 C-67.19732614 127.06370204 -65.67897785 124.92712365 -64 122 C-63.4225 121.29875 -62.845 120.5975 -62.25 119.875 C-60.91808626 118.017823 -60.91808626 118.017823 -60.1171875 115.78125 C-56.49200573 106.75632195 -51.58561653 98.1705738 -46.98413086 89.61010742 C-44.13371939 84.29112817 -41.41746125 78.91544478 -38.73828125 73.5078125 C-37.51511499 71.03949047 -36.28468514 68.57611675 -35.04296875 66.1171875 C-34.56162476 65.16211304 -34.56162476 65.16211304 -34.07055664 64.18774414 C-33.1754348 62.41252316 -32.27915805 60.63788466 -31.3828125 58.86328125 C-29.93838008 56.02815874 -29.93838008 56.02815874 -29 53 C-28.34 53 -27.68 53 -27 53 C-26.8868042 52.28086426 -26.7736084 51.56172852 -26.65698242 50.82080078 C-25.96203548 47.83699663 -24.9199128 45.57073868 -23.48828125 42.8671875 C-22.72161133 41.40925781 -22.72161133 41.40925781 -21.93945312 39.921875 C-21.40255859 38.91640625 -20.86566406 37.9109375 -20.3125 36.875 C-19.79494141 35.89273438 -19.27738281 34.91046875 -18.74414062 33.8984375 C-15.6630217 28.06618249 -12.52099893 22.26831873 -9.35473633 16.48193359 C-7.01166447 12.18932798 -4.71802507 7.87046648 -2.41796875 3.5546875 C-1 1 -1 1 0 0 Z M-67 143 C-67.45375 143.45375 -67.9075 143.9075 -68.375 144.375 C-70 146 -70 146 -73 148 C-72.34 148 -71.68 148 -71 148 C-71 149.32 -71 150.64 -71 152 C-68.36 152 -65.72 152 -63 152 C-63.99 149.03 -64.98 146.06 -66 143 C-66.33 143 -66.66 143 -67 143 Z " fill="#6FA6F5" transform="translate(444,112)"/>
<path d="M0 0 C0.66 0 1.32 0 2 0 C1.74069171 1.54364699 1.46690524 3.0848638 1.1875 4.625 C1.03667969 5.48351562 0.88585937 6.34203125 0.73046875 7.2265625 C0 10 0 10 -1.421875 12.828125 C-3.2574703 16.51748981 -4.34044405 20.16755499 -5.4375 24.125 C-5.87087258 25.63845784 -6.30577757 27.15147769 -6.7421875 28.6640625 C-6.95456055 29.40172852 -7.16693359 30.13939453 -7.38574219 30.89941406 C-9.2160843 37.15866029 -11.20001186 43.28520243 -13.90234375 49.22265625 C-16.06880696 54.03423736 -17.80609197 58.94346621 -19.5 63.9375 C-23.13226707 74.49728675 -23.13226707 74.49728675 -25.0625 79.125 C-27.26903205 84.45111185 -29.01985669 89.92901955 -30.80688477 95.40673828 C-32.41506696 100.32239541 -34.14851139 105.17095656 -36 110 C-39.54443989 119.27173605 -42.17686067 128.24694571 -44 138 C-44.33 138 -44.66 138 -45 138 C-44.85941524 135.54126232 -44.71277001 133.08314825 -44.5625 130.625 C-44.52318359 129.92632812 -44.48386719 129.22765625 -44.44335938 128.5078125 C-44.11328125 123.2265625 -44.11328125 123.2265625 -43 121 C-42.34 121 -41.68 121 -41 121 C-41.33 118.69 -41.66 116.38 -42 114 C-42.33 114 -42.66 114 -43 114 C-43.26218749 110.85375007 -43.24754367 109.38162983 -41.5 106.6875 C-41.005 106.130625 -40.51 105.57375 -40 105 C-40.66 104.67 -41.32 104.34 -42 104 C-40.68 104 -39.36 104 -38 104 C-37.87882812 103.14277344 -37.75765625 102.28554687 -37.6328125 101.40234375 C-36.76144776 95.45695509 -35.86184181 89.71851412 -34 84 C-33.01 84 -32.02 84 -31 84 C-31 82.68 -31 81.36 -31 80 C-32.87075683 80.07456723 -32.87075683 80.07456723 -35 81 C-37.17659615 83.54270235 -37.17659615 83.54270235 -39.125 86.6875 C-39.80820312 87.72261719 -40.49140625 88.75773437 -41.1953125 89.82421875 C-43.09598756 92.91841858 -43.09598756 92.91841858 -44.0546875 96.26953125 C-45 99 -45 99 -48 101 C-49.01868662 101.98095748 -50.02351983 102.97702078 -51 104 C-51.66 103.67 -52.32 103.34 -53 103 C-52.29982757 98.97900975 -50.32002662 95.65321941 -48.375 92.125 C-45.03927278 85.97487014 -41.84462648 79.77763115 -38.73828125 73.5078125 C-37.51511499 71.03949047 -36.28468514 68.57611675 -35.04296875 66.1171875 C-34.56162476 65.16211304 -34.56162476 65.16211304 -34.07055664 64.18774414 C-33.1754348 62.41252316 -32.27915805 60.63788466 -31.3828125 58.86328125 C-29.93838008 56.02815874 -29.93838008 56.02815874 -29 53 C-28.34 53 -27.68 53 -27 53 C-26.8868042 52.28086426 -26.7736084 51.56172852 -26.65698242 50.82080078 C-25.96203548 47.83699663 -24.9199128 45.57073868 -23.48828125 42.8671875 C-22.97716797 41.89523438 -22.46605469 40.92328125 -21.93945312 39.921875 C-21.40255859 38.91640625 -20.86566406 37.9109375 -20.3125 36.875 C-19.79494141 35.89273438 -19.27738281 34.91046875 -18.74414062 33.8984375 C-15.6630217 28.06618249 -12.52099893 22.26831873 -9.35473633 16.48193359 C-7.01166447 12.18932798 -4.71802507 7.87046648 -2.41796875 3.5546875 C-1 1 -1 1 0 0 Z " fill="#B8DAFB" transform="translate(444,112)"/>
<path d="M0 0 C8.41588566 2.25425509 15.47662804 6.46917636 22.94702148 10.81835938 C25.04646607 12.02674465 27.1627974 13.19956975 29.28515625 14.3671875 C34.73538842 17.38313088 40.08365646 20.56702021 45.4375 23.75 C47.39417697 24.91205507 49.3511909 26.07354304 51.30859375 27.234375 C52.16251709 27.74194336 53.01644043 28.24951172 53.89624023 28.77246094 C55.24057101 29.5568749 56.60787055 30.30393528 58 31 C58 31.66 58 32.32 58 33 C58.67160156 33.24492187 59.34320313 33.48984375 60.03515625 33.7421875 C62.32331746 34.71292256 64.34884398 35.72245231 66.49609375 36.9453125 C75.12633184 41.78433983 82.87633317 45.51411115 93 43 C95.80267386 41.06370204 97.32102215 38.92712365 99 36 C99.5775 35.29875 100.155 34.5975 100.75 33.875 C102.0880507 32.00741021 102.0880507 32.00741021 102.9140625 29.71484375 C104.01820721 26.95448198 105.28165954 24.33882985 106.625 21.6875 C107.29402344 20.36298828 107.29402344 20.36298828 107.9765625 19.01171875 C108.31429687 18.34785156 108.65203125 17.68398437 109 17 C110.125 20.75 110.125 20.75 109 23 C108.34 23 107.68 23 107 23 C107.0825 23.804375 107.165 24.60875 107.25 25.4375 C106.91860797 30.15983647 105.55029897 34.0028968 103 38 C100.3125 39.3125 100.3125 39.3125 98 40 C97.24756445 41.92638012 97.24756445 41.92638012 97 44 C96.34 44.99 95.68 45.98 95 47 C91.91796875 47.36328125 91.91796875 47.36328125 88.1875 47.3125 C86.96417969 47.30863281 85.74085938 47.30476563 84.48046875 47.30078125 C81.18056163 47.01560409 78.97991251 46.36448626 76 45 C74.34080104 44.63128912 72.6752357 44.28718326 71 44 C70.67 43.01 70.34 42.02 70 41 C68.6696875 41.0928125 68.6696875 41.0928125 67.3125 41.1875 C64 41 64 41 61.375 39.375 C60.59125 38.92125 59.8075 38.4675 59 38 C56.69712207 38.69140351 56.69712207 38.69140351 55 40 C55 39.34 55 38.68 55 38 C54.34 38 53.68 38 53 38 C53 37.34 53 36.68 53 36 C52.34 36 51.68 36 51 36 C51.495 37.98 51.495 37.98 52 40 C54.31 40.66 56.62 41.32 59 42 C59 43.65 59 45.3 59 47 C59.598125 47.0825 60.19625 47.165 60.8125 47.25 C63.62219534 48.21332412 64.27912517 49.63379711 66 52 C68.08334635 53.2516467 68.08334635 53.2516467 70 54 C70 55.65 70 57.3 70 59 C67.95880212 57.38405168 65.95927063 55.7143618 64 54 C64 53.34 64 52.68 64 52 C62.515 51.505 62.515 51.505 61 51 C58.8125 49.0625 58.8125 49.0625 57 47 C57 46.34 57 45.68 57 45 C56.01 45 55.02 45 54 45 C54 44.34 54 43.68 54 43 C53.278125 42.7421875 52.55625 42.484375 51.8125 42.21875 C48.8536446 40.93657933 46.58491358 39.42292351 44 37.5 C43.0409375 36.7884375 42.081875 36.076875 41.09375 35.34375 C37.32776262 32.49072926 33.58198432 29.6125233 29.84667969 26.71948242 C26.35695819 24.02236107 22.82623671 21.39478265 19.25 18.8125 C15.74908563 16.2780642 12.2591971 13.73287534 8.8125 11.125 C8.07644531 10.57070312 7.34039062 10.01640625 6.58203125 9.4453125 C6.05996094 8.96835938 5.53789062 8.49140625 5 8 C5 7.34 5 6.68 5 6 C3.68 5.67 2.36 5.34 1 5 C1 4.34 1 3.68 1 3 C0.34 3 -0.32 3 -1 3 C-0.67 2.01 -0.34 1.02 0 0 Z " fill="#76B3EF" transform="translate(281,198)"/>
<path d="M0 0 C0.66 0.33 1.32 0.66 2 1 C1.34 3.97 0.68 6.94 0 10 C-0.33 8.68 -0.66 7.36 -1 6 C-1.99 5.67 -2.98 5.34 -4 5 C-3.34 4.67 -2.68 4.34 -2 4 C-0.86649466 1.98330173 -0.86649466 1.98330173 0 0 Z M-22 2 C-19.5625 2.6875 -19.5625 2.6875 -17 4 C-15.51856827 7.80939588 -16.17785294 11.07196405 -17 15 C-16.34 15 -15.68 15 -15 15 C-15 14.34 -15 13.68 -15 13 C-13.625 10.8125 -13.625 10.8125 -11 9 C-7.59950619 8.95203065 -4.34437858 9.41281903 -1 10 C-1.0625 12.8125 -1.0625 12.8125 -2 16 C-5.0625 17.4375 -5.0625 17.4375 -6.96875 18.1015625 C-12.2683922 20.44563501 -16.384689 25.34039235 -20.375 29.4375 C-23 32 -23 32 -25 32 C-25 32.66 -25 33.32 -25 34 C-25.99 34.495 -25.99 34.495 -27 35 C-27.65213292 37.02463255 -27.65213292 37.02463255 -28 39 C-28.66 39 -29.32 39 -30 39 C-30.25224334 32.56779481 -30.25224334 32.56779481 -29.00390625 29.7578125 C-27.69915946 26.17356644 -27.74618695 22.82140276 -27.8125 19.0625 C-27.8134668 18.02706055 -27.8134668 18.02706055 -27.81445312 16.97070312 C-27.84931327 12.88432003 -28.21580652 9.00879709 -29 5 C-28.34 4.67 -27.68 4.34 -27 4 C-24.875 4.9375 -24.875 4.9375 -23 6 C-22.67 4.68 -22.34 3.36 -22 2 Z " fill="#4B8EF1" transform="translate(387,257)"/>
<path d="M0 0 C0.66 0 1.32 0 2 0 C1.74069171 1.54364699 1.46690524 3.0848638 1.1875 4.625 C1.03667969 5.48351562 0.88585937 6.34203125 0.73046875 7.2265625 C0 10 0 10 -1.421875 12.828125 C-3.25746146 16.51747205 -4.34051586 20.16754255 -5.4375 24.125 C-5.86954863 25.63455767 -6.3031527 27.14367098 -6.73828125 28.65234375 C-7.05659912 29.75811768 -7.05659912 29.75811768 -7.38134766 30.88623047 C-11.72731931 45.73525281 -11.72731931 45.73525281 -15 51 C-16.485 51.495 -16.485 51.495 -18 52 C-19.125 49.1875 -19.125 49.1875 -20 46 C-19.34 45.01 -18.68 44.02 -18 43 C-17.34 43 -16.68 43 -16 43 C-15.67 41.68 -15.34 40.36 -15 39 C-19.45714739 42.26381669 -19.45714739 42.26381669 -22 47 C-22.12375 48.155 -22.2475 49.31 -22.375 50.5 C-23.10930025 54.61208139 -24.09138122 55.17448461 -27 58 C-28.50624184 60.9307892 -29.77214589 63.94342701 -31 67 C-31.99 66.67 -32.98 66.34 -34 66 C-32.58192622 61.52761347 -30.88695626 57.28853694 -29 53 C-28.34 53 -27.68 53 -27 53 C-26.8868042 52.28086426 -26.7736084 51.56172852 -26.65698242 50.82080078 C-25.96203548 47.83699663 -24.9199128 45.57073868 -23.48828125 42.8671875 C-22.97716797 41.89523438 -22.46605469 40.92328125 -21.93945312 39.921875 C-21.40255859 38.91640625 -20.86566406 37.9109375 -20.3125 36.875 C-19.79494141 35.89273438 -19.27738281 34.91046875 -18.74414062 33.8984375 C-15.6630217 28.06618249 -12.52099893 22.26831873 -9.35473633 16.48193359 C-7.01166447 12.18932798 -4.71802507 7.87046648 -2.41796875 3.5546875 C-1 1 -1 1 0 0 Z " fill="#95CEE1" transform="translate(444,112)"/>
<path d="M0 0 C8.41447505 2.25387724 15.47483769 6.46736909 22.94360352 10.81665039 C25.06193392 12.03563976 27.19801858 13.21736841 29.33984375 14.39453125 C34.48875573 17.24385397 39.52541273 20.27103058 44.5625 23.3125 C45.47580078 23.86228516 46.38910156 24.41207031 47.33007812 24.97851562 C49.55420892 26.31765197 51.77749639 27.65816545 54 29 C50.90279155 29.87840996 49.09354597 29.99435406 46 29 C46 28.34 46 27.68 46 27 C41.65005187 24.39003112 36.99823188 24 32 24 C32 24.66 32 25.32 32 26 C32.70125 26.0825 33.4025 26.165 34.125 26.25 C37.73489415 27.19171152 40.08785384 28.6835201 43 31 C43.625 33.125 43.625 33.125 44 35 C45.9837767 36.28436734 45.9837767 36.28436734 48 37 C46.32421875 37.76171875 46.32421875 37.76171875 44 38 C41.58203125 36.33203125 41.58203125 36.33203125 38.8125 33.8125 C33.89123179 29.47075435 28.7709402 25.60859066 23.375 21.875 C9.14375068 11.97067019 9.14375068 11.97067019 5 8 C5 7.34 5 6.68 5 6 C3.68 5.67 2.36 5.34 1 5 C1 4.34 1 3.68 1 3 C0.34 3 -0.32 3 -1 3 C-0.67 2.01 -0.34 1.02 0 0 Z " fill="#8CC8F0" transform="translate(281,198)"/>
<path d="M0 0 C0.33 0 0.66 0 1 0 C1.23669163 5.17434195 0.58373889 8.97960383 -1.25 13.8125 C-1.71019531 15.04097656 -2.17039062 16.26945312 -2.64453125 17.53515625 C-3.71983014 20.28383095 -4.81615913 23.01998447 -5.9375 25.75 C-8.16812925 31.20869435 -9.97842319 36.80196835 -11.80639648 42.40527344 C-13.41475734 47.32141564 -15.14832624 52.17047366 -17 57 C-20.54443989 66.27173605 -23.17686067 75.24694571 -25 85 C-25.33 85 -25.66 85 -26 85 C-25.85941524 82.54126232 -25.71277001 80.08314825 -25.5625 77.625 C-25.52318359 76.92632812 -25.48386719 76.22765625 -25.44335938 75.5078125 C-25.11328125 70.2265625 -25.11328125 70.2265625 -24 68 C-23.34 68 -22.68 68 -22 68 C-22.33 65.69 -22.66 63.38 -23 61 C-23.33 61 -23.66 61 -24 61 C-24.26218749 57.85375007 -24.24754367 56.38162983 -22.5 53.6875 C-22.005 53.130625 -21.51 52.57375 -21 52 C-21.66 51.67 -22.32 51.34 -23 51 C-21.68 51 -20.36 51 -19 51 C-18.87882812 50.14277344 -18.75765625 49.28554687 -18.6328125 48.40234375 C-17.76144776 42.45695509 -16.86184181 36.71851412 -15 31 C-14.01 31 -13.02 31 -12 31 C-11.896875 30.278125 -11.79375 29.55625 -11.6875 28.8125 C-11 26 -11 26 -9.5625 23.6875 C-7.08902793 19.43312804 -6 14.94762695 -6 10 C-5.01 10 -4.02 10 -3 10 C-2.814375 8.3603125 -2.814375 8.3603125 -2.625 6.6875 C-2 3 -2 3 0 0 Z " fill="#87C0EF" transform="translate(425,165)"/>
<path d="M0 0 C9.67465929 8.6985809 12.1179576 24.41358723 13.3828125 36.7265625 C13.65143908 44.37346578 12.5254756 50.54225578 7.71484375 56.625 C4.31691742 59.9566715 0.76927418 60.9211479 -3.8203125 61.20703125 C-7.33434192 60.87326143 -9.37394978 59.25090019 -12 57 C-12.50273437 56.58234375 -13.00546875 56.1646875 -13.5234375 55.734375 C-15.54828325 53.35598475 -16.27851389 50.9579577 -17.25 48 C-17.60578125 46.948125 -17.9615625 45.89625 -18.328125 44.8125 C-19 42 -19 42 -18 39 C-18 39.66 -18 40.32 -18 41 C-17.34 41 -16.68 41 -16 41 C-15.87625 41.94875 -15.7525 42.8975 -15.625 43.875 C-15.28312823 47.08667191 -15.28312823 47.08667191 -13 49 C-12.01 48.505 -12.01 48.505 -11 48 C-11.350625 48.598125 -11.70125 49.19625 -12.0625 49.8125 C-13.33304698 52.10813214 -13.33304698 52.10813214 -12 55 C-10.35 55.33 -8.7 55.66 -7 56 C-7 56.66 -7 57.32 -7 58 C-5.5199159 57.88637738 -4.04089926 57.75877092 -2.5625 57.625 C-1.32693359 57.52058594 -1.32693359 57.52058594 -0.06640625 57.4140625 C0.95646484 57.20910156 0.95646484 57.20910156 2 57 C2.33 56.34 2.66 55.68 3 55 C4.485 54.505 4.485 54.505 6 54 C10.24629116 48.66180539 10.59503415 44.00609236 10.40234375 37.27734375 C9.90441984 33.2214393 8.64694899 30.01257272 6.94140625 26.328125 C5.97665584 23.94226922 5.67421082 22.05509207 5.5 19.5 C5.18317848 15.03281659 3.7468002 11.43030045 1.9375 7.359375 C0.96679644 4.91643771 0.44026767 2.58657258 0 0 Z " fill="#D5E2F6" transform="translate(371,168)"/>
<path d="M0 0 C3.45803731 -0.11795981 6.91554557 -0.18782752 10.375 -0.25 C11.34050781 -0.28351563 12.30601562 -0.31703125 13.30078125 -0.3515625 C21.3882254 -0.4601188 27.74420708 1.36546153 34.625 5.625 C36.87442825 9.51037608 36.30094513 13.61957647 36 18 C35.34 18 34.68 18 34 18 C33.505 19.485 33.505 19.485 33 21 C25.47546623 28.09965117 13.98647118 30.45830975 4 32 C4 31.34 4 30.68 4 30 C5.9570868 29.32968281 7.91571113 28.66385317 9.875 28 C10.96554687 27.62875 12.05609375 27.2575 13.1796875 26.875 C16 26 16 26 18 26 C18 25.34 18 24.68 18 24 C19.15628906 23.63648438 19.15628906 23.63648438 20.3359375 23.265625 C21.33882813 22.93046875 22.34171875 22.5953125 23.375 22.25 C24.87160156 21.76273437 24.87160156 21.76273437 26.3984375 21.265625 C29.35722919 19.82621282 29.80825093 18.96131588 31 16 C31.66 15.67 32.32 15.34 33 15 C33 12.36 33 9.72 33 7 C32.113125 6.71125 31.22625 6.4225 30.3125 6.125 C27 5 27 5 24.75390625 3.96484375 C21.326057 2.76388096 18.24952325 2.61027139 14.625 2.4375 C9.678107 2.19065911 4.88697676 1.76398474 0 1 C0 0.67 0 0.34 0 0 Z " fill="#C5D6F2" transform="translate(310,260)"/>
<path d="M0 0 C0.66 0 1.32 0 2 0 C1.74069171 1.54364699 1.46690524 3.0848638 1.1875 4.625 C1.03667969 5.48351562 0.88585937 6.34203125 0.73046875 7.2265625 C0 10 0 10 -1.40625 12.78125 C-3.35151065 16.70991367 -4.50679289 20.66583265 -5.6875 24.875 C-5.91244141 25.65875 -6.13738281 26.4425 -6.36914062 27.25 C-6.91800105 29.16517253 -7.45973642 31.08238459 -8 33 C-8.66 33 -9.32 33 -10 33 C-10.66 34.32 -11.32 35.64 -12 37 C-12 34.66666667 -12 32.33333333 -12 30 C-12.99 30.33 -13.98 30.66 -15 31 C-14.46659341 26.73894968 -13.52029285 23.64874191 -11.375 19.9375 C-10.84261719 19.00035156 -10.31023437 18.06320313 -9.76171875 17.09765625 C-9.18035156 16.07542969 -8.59898437 15.05320312 -8 14 C-6.71663201 11.63166863 -5.45221464 9.25333506 -4.1875 6.875 C-1.1209068 1.1209068 -1.1209068 1.1209068 0 0 Z " fill="#85CADE" transform="translate(444,112)"/>
<path d="M0 0 C3.06393013 -0.25532751 4.63233212 -0.21861333 7.3125 1.375 C7.869375 1.91125 8.42625 2.4475 9 3 C9 3.66 9 4.32 9 5 C9.99 5 10.98 5 12 5 C13.29869991 6.4610374 14.59183162 7.93041069 15.79296875 9.47265625 C17.02694653 11.10408704 17.02694653 11.10408704 18.8125 12.75 C20 14 20 14 20 16 C20.99 16.33 21.98 16.66 23 17 C24.203125 18.5234375 24.203125 18.5234375 25.25 20.375 C25.60578125 20.98085937 25.9615625 21.58671875 26.328125 22.2109375 C27 24 27 24 26 27 C25.67 26.34 25.34 25.68 25 25 C24.34 25 23.68 25 23 25 C20 20.61538462 20 20.61538462 20 18 C19.01 18 18.02 18 17 18 C17 17.34 17 16.68 17 16 C16.01 16 15.02 16 14 16 C14 15.34 14 14.68 14 14 C12.35 14.33 10.7 14.66 9 15 C9.66 13.02 10.32 11.04 11 9 C8.69 9.33 6.38 9.66 4 10 C3.67 9.01 3.34 8.02 3 7 C2.34 6.67 1.68 6.34 1 6 C0.375 2.9375 0.375 2.9375 0 0 Z " fill="#4A86E8" transform="translate(344,142)"/>
<path d="M0 0 C1.37400775 3.12274488 0.92162365 4.20900359 -0.3125 7.5 C-1.21484373 9.37152774 -2.13008858 11.23849574 -3.125 13.0625 C-4.14781044 15.07977393 -4.14781044 15.07977393 -4.375 17.8125 C-5.17303192 21.88246277 -6.85804715 24.4523906 -9 28 C-9.33 28.99 -9.66 29.98 -10 31 C-10.99 31.66 -11.98 32.32 -13 33 C-14.01868662 33.98095748 -15.02351983 34.97702078 -16 36 C-16.66 35.67 -17.32 35.34 -18 35 C-17.29986117 30.97920271 -15.32054547 27.65283175 -13.375 24.125 C-9.89859471 17.73526915 -6.62413025 11.27291924 -3.4453125 4.73046875 C-2 2 -2 2 0 0 Z " fill="#9DD0E7" transform="translate(409,180)"/>
<path d="M0 0 C2.98287075 2.55674635 4.2621947 5.52438941 6 9 C6.98165594 10.01801357 7.97591432 11.0246803 9 12 C9 12.66 9 13.32 9 14 C10.32 14.33 11.64 14.66 13 15 C13.66 17.31 14.32 19.62 15 22 C10.84545969 21.38903819 7.69746312 19.96191921 4 18 C2.88625 17.443125 1.7725 16.88625 0.625 16.3125 C-0.24125 15.879375 -1.1075 15.44625 -2 15 C-2 14.01 -2 13.02 -2 12 C-1.34 12 -0.68 12 0 12 C-0.185625 11.319375 -0.37125 10.63875 -0.5625 9.9375 C-1.08523943 6.42767809 -0.61378577 3.47811937 0 0 Z " fill="#438EEC" transform="translate(397,264)"/>
<path d="M0 0 C1.28047287 3.8414186 0.62891063 6.67393874 0.05859375 10.625 C-0.23445659 13.27128896 -0.23445659 13.27128896 2 16 C2.99 16 3.98 16 5 16 C5 17.32 5 18.64 5 20 C4.30132812 19.96519531 3.60265625 19.93039062 2.8828125 19.89453125 C1.97273438 19.86746094 1.06265625 19.84039062 0.125 19.8125 C-0.77992188 19.77769531 -1.68484375 19.74289062 -2.6171875 19.70703125 C-3.40351563 19.80371094 -4.18984375 19.90039062 -5 20 C-5.66 20.99 -6.32 21.98 -7 23 C-7.66 23 -8.32 23 -9 23 C-9 23.66 -9 24.32 -9 25 C-9.66 25 -10.32 25 -11 25 C-10.94199219 24.32453125 -10.88398438 23.6490625 -10.82421875 22.953125 C-10.68625136 20.22531264 -10.63787181 17.7095709 -11 15 C-13.33830958 12.4595774 -13.33830958 12.4595774 -16 11 C-16 10.34 -16 9.68 -16 9 C-14.02 9 -12.04 9 -10 9 C-10 9.66 -10 10.32 -10 11 C-9.01 11.33 -8.02 11.66 -7 12 C-7.33 13.65 -7.66 15.3 -8 17 C-4.535 16.505 -4.535 16.505 -1 16 C-1.66 15.01 -2.32 14.02 -3 13 C-4.56462585 6.1292517 -4.56462585 6.1292517 -3 3 C-2.34 3 -1.68 3 -1 3 C-0.67 2.01 -0.34 1.02 0 0 Z " fill="#6AB9F5" transform="translate(381,247)"/>
<path d="M0 0 C0.33 0 0.66 0 1 0 C1.23669163 5.17434195 0.58373889 8.97960383 -1.25 13.8125 C-1.70890625 15.03453125 -2.1678125 16.2565625 -2.640625 17.515625 C-4.05948247 21.15246656 -5.48040922 24.78694722 -6.953125 28.40234375 C-9.037541 33.57449538 -11.00809932 38.79166953 -13 44 C-13.33 44 -13.66 44 -14 44 C-12.98473282 29.22519084 -12.98473282 29.22519084 -9.5 23.5625 C-7.04634866 19.37084563 -6 14.87491022 -6 10 C-5.01 10 -4.02 10 -3 10 C-2.87625 8.906875 -2.7525 7.81375 -2.625 6.6875 C-2 3 -2 3 0 0 Z " fill="#8BC8E5" transform="translate(425,165)"/>
<path d="M0 0 C2.11391258 2.77648219 4.12112393 5.60034879 6.0625 8.5 C6.56910156 9.2528125 7.07570313 10.005625 7.59765625 10.78125 C8.8782097 12.80730672 9.97249368 14.83682881 11 17 C11.66 17 12.32 17 13 17 C14.2890625 18.42578125 14.2890625 18.42578125 15.625 20.3125 C16.07101562 20.92738281 16.51703125 21.54226563 16.9765625 22.17578125 C18 24 18 24 18 27 C18.66 27 19.32 27 20 27 C20 27.99 20 28.98 20 30 C16.34038847 29.19974097 12.93155291 27.9020857 9.4375 26.5625 C7.73400391 25.91474609 7.73400391 25.91474609 5.99609375 25.25390625 C3 24 3 24 0 22 C0 21.34 0 20.68 0 20 C-1.65 19.67 -3.3 19.34 -5 19 C-3.34375 18.3203125 -3.34375 18.3203125 -1 18 C1.65625 19.1796875 1.65625 19.1796875 4.5 20.875 C7.66435736 22.74405723 10.36526878 24.33134662 14 25 C13.525625 24.05125 13.05125 23.1025 12.5625 22.125 C11.70833333 20.41666667 10.85416667 18.70833333 10 17 C9.34 17 8.68 17 8 17 C6.5625 15.390625 6.5625 15.390625 5 13.25 C4.484375 12.55390625 3.96875 11.8578125 3.4375 11.140625 C0.82293049 7.24718997 -0.26340704 4.74132671 0 0 Z " fill="#93C9F0" transform="translate(398,261)"/>
<path d="M0 0 C0.99 0.33 1.98 0.66 3 1 C3.6875 3.0625 3.6875 3.0625 4 5 C4.66 4.34 5.32 3.68 6 3 C6.99 3 7.98 3 9 3 C10 6 10 6 8.9375 9 C6.64184942 12.55455574 4.76861891 13.23105643 1 15 C-0.37013339 16.63654821 -1.7120272 18.29803595 -3 20 C-3.66 20 -4.32 20 -5 20 C-4.25 14.25 -4.25 14.25 -2 12 C-1.32094481 9.90589664 -1.32094481 9.90589664 -0.875 7.5625 C-0.70742188 6.78003906 -0.53984375 5.99757812 -0.3671875 5.19140625 C0.08262709 2.87720048 0.08262709 2.87720048 0 0 Z " fill="#AECDFA" transform="translate(409,178)"/>
<path d="M0 0 C0.82226074 0.30635376 0.82226074 0.30635376 1.66113281 0.61889648 C7.05437032 2.53594309 12.05958477 3.58814552 17.75 4.0625 C18.54768799 4.13774902 19.34537598 4.21299805 20.16723633 4.29052734 C21.87296245 4.45055775 23.57912046 4.60604004 25.28564453 4.75732422 C28.15920814 5.01423393 31.03074559 5.28841861 33.90234375 5.56640625 C38.93408563 6.05319998 43.96673472 6.52922693 49 7 C49 7.33 49 7.66 49 8 C40.15482708 9.18912157 31.68622979 8.77576535 22.8125 8.0625 C21.46555702 7.96076126 20.11855168 7.85984468 18.77148438 7.75976562 C15.51362008 7.51455003 12.25662064 7.26113054 9 7 C8.67 6.01 8.34 5.02 8 4 C3.545 4.495 3.545 4.495 -1 5 C-0.67 3.35 -0.34 1.7 0 0 Z " fill="#6A9DDF" transform="translate(274,255)"/>
<path d="M0 0 C0.33 0 0.66 0 1 0 C1.30506858 5.59292401 0.6600789 9.69504432 -1.265625 14.9453125 C-2.09495717 17.26567803 -2.60789712 19.56896213 -3 22 C-3.66 22 -4.32 22 -5 22 C-5.33 26.95 -5.66 31.9 -6 37 C-6.33 37 -6.66 37 -7 37 C-7.1552312 29.63514173 -6.89161932 22.29366038 -6.5625 14.9375 C-6.52326416 13.99688721 -6.48402832 13.05627441 -6.44360352 12.0871582 C-6.40162842 11.20116943 -6.35965332 10.31518066 -6.31640625 9.40234375 C-6.27974854 8.60304443 -6.24309082 7.80374512 -6.20532227 6.98022461 C-6 5 -6 5 -5 3 C-4.01 3 -3.02 3 -2 3 C-1.34 2.01 -0.68 1.02 0 0 Z " fill="#4684EA" transform="translate(254,181)"/>
<path d="M0 0 C0.66 0.33 1.32 0.66 2 1 C2.99 0.67 3.98 0.34 5 0 C4.814375 0.804375 4.62875 1.60875 4.4375 2.4375 C4.2209375 3.7059375 4.2209375 3.7059375 4 5 C4.33 5.33 4.66 5.66 5 6 C5.66 5.34 6.32 4.68 7 4 C5.87717905 10.24938503 4.41124533 16.56143093 1 22 C0.01 22.33 -0.98 22.66 -2 23 C-3.125 20.1875 -3.125 20.1875 -4 17 C-3.01 15.515 -3.01 15.515 -2 14 C-1.34 14 -0.68 14 0 14 C0.05399736 12.54207116 0.09279177 11.08357288 0.125 9.625 C0.15980469 8.40683594 0.15980469 8.40683594 0.1953125 7.1640625 C0.21370051 4.78657757 0.21370051 4.78657757 -2 3 C-1.34 2.01 -0.68 1.02 0 0 Z " fill="#93D1EA" transform="translate(428,141)"/>
<path d="M0 0 C0.66 0 1.32 0 2 0 C2 0.66 2 1.32 2 2 C2.99 2.33 3.98 2.66 5 3 C6.4477922 5.89558441 7 7.74188938 7 11 C7.66 11 8.32 11 9 11 C9.05420701 13.56278699 9.09377007 16.12441483 9.125 18.6875 C9.14175781 19.40873047 9.15851563 20.12996094 9.17578125 20.87304688 C9.21434382 25.09564833 8.77400865 28.18319351 7 32 C6.6186926 34.32597511 6.27539746 36.65912158 6 39 C6.66 39.33 7.32 39.66 8 40 C7.34 40.66 6.68 41.32 6 42 C5.01 42 4.02 42 3 42 C3.43331695 37.45017201 3.91948903 33.1136276 5.0625 28.6875 C7.13521493 19.6371722 6.93980894 11.93253991 2 4 C1.32213714 2.67232377 0.65252079 1.34031297 0 0 Z " fill="#66B8EE" transform="translate(351,257)"/>
<path d="M0 0 C6.34339651 1.80610595 11.56938255 4.25627734 17 8 C16.34 8.66 15.68 9.32 15 10 C14.34 10 13.68 10 13 10 C13 10.66 13 11.32 13 12 C13.66 12 14.32 12 15 12 C15 12.66 15 13.32 15 14 C15.66 14.33 16.32 14.66 17 15 C13.23396179 15 12.22857351 13.92592757 9.3125 11.625 C8.50425781 10.99851563 7.69601562 10.37203125 6.86328125 9.7265625 C6.24839844 9.15679687 5.63351562 8.58703125 5 8 C5 7.34 5 6.68 5 6 C3.68 5.67 2.36 5.34 1 5 C1 4.34 1 3.68 1 3 C0.34 3 -0.32 3 -1 3 C-0.67 2.01 -0.34 1.02 0 0 Z " fill="#9BD5EE" transform="translate(281,198)"/>
<path d="M0 0 C0.33 0 0.66 0 1 0 C1 2.97 1 5.94 1 9 C0.34 9 -0.32 9 -1 9 C-1.508783 10.55966218 -2.00663469 12.12289241 -2.5 13.6875 C-2.7784375 14.55761719 -3.056875 15.42773438 -3.34375 16.32421875 C-3.99850805 18.99391677 -4.11831495 21.26396684 -4 24 C-4.66 24 -5.32 24 -6 24 C-6 32.58 -6 41.16 -6 50 C-6.33 50 -6.66 50 -7 50 C-8.97102038 32.43680051 -8.0516003 16.1032006 0 0 Z " fill="#74A0DC" transform="translate(226,174)"/>
<path d="M0 0 C6.2359812 5.45415669 9.68639308 14.98699777 11 23 C11.13228524 26.00948922 11.12538824 28.99068231 11 32 C7.28679247 29.52452831 7.31940042 28.3696129 6.375 24.125 C6.13523437 23.07570312 5.89546875 22.02640625 5.6484375 20.9453125 C5.43445313 19.97335938 5.22046875 19.00140625 5 18 C3.95994687 13.44865637 2.3550564 9.09052006 0.83984375 4.6796875 C0 2 0 2 0 0 Z " fill="#ADC4EE" transform="translate(371,168)"/>
<path d="M0 0 C1.125 3.75 1.125 3.75 0 6 C-0.66 6 -1.32 6 -2 6 C-1.87625 7.2065625 -1.87625 7.2065625 -1.75 8.4375 C-2.08139203 13.15983647 -3.44970103 17.0028968 -6 21 C-8.6875 22.3125 -8.6875 22.3125 -11 23 C-11.66179847 24.98045559 -11.66179847 24.98045559 -12 27 C-15.64418341 29.42945561 -16.92923364 29.0828781 -21.1875 28.625 C-22.27417969 28.51414063 -23.36085938 28.40328125 -24.48046875 28.2890625 C-25.31191406 28.19367188 -26.14335937 28.09828125 -27 28 C-27 27.67 -27 27.34 -27 27 C-25.91332031 27.01353516 -25.91332031 27.01353516 -24.8046875 27.02734375 C-19.05987392 26.95363306 -19.05987392 26.95363306 -14.0390625 24.515625 C-12.54719493 22.74355896 -11.25424993 20.94580554 -10 19 C-9.4225 18.29875 -8.845 17.5975 -8.25 16.875 C-6.9119493 15.00741021 -6.9119493 15.00741021 -6.0859375 12.71484375 C-4.98179279 9.95448198 -3.71834046 7.33882985 -2.375 4.6875 C-1.92898438 3.80449219 -1.48296875 2.92148438 -1.0234375 2.01171875 C-0.68570312 1.34785156 -0.34796875 0.68398437 0 0 Z " fill="#85C3EF" transform="translate(390,215)"/>
<path d="M0 0 C0 0.66 0 1.32 0 2 C-0.80824219 2.07476562 -1.61648438 2.14953125 -2.44921875 2.2265625 C-8.53889457 2.78020737 -8.53889457 2.78020737 -13.83984375 5.46875 C-14.96872799 6.92360385 -15.99406908 8.45757259 -17 10 C-17.66 10 -18.32 10 -19 10 C-19 10.66 -19 11.32 -19 12 C-20.64453125 13.65625 -20.64453125 13.65625 -22.8125 15.5 C-23.52019531 16.1084375 -24.22789062 16.716875 -24.95703125 17.34375 C-27 19 -27 19 -30 21 C-29.67 19.35 -29.34 17.7 -29 16 C-28.34 16 -27.68 16 -27 16 C-27 15.34 -27 14.68 -27 14 C-25.19503029 12.18062894 -23.23784952 10.59396475 -21.26953125 8.953125 C-18.99257524 7.05775565 -18.99257524 7.05775565 -17.07421875 4.984375 C-11.72040252 -0.46920178 -7.47275852 -0.86541137 0 0 Z " fill="#7BC1F0" transform="translate(389,275)"/>
<path d="M0 0 C-1.32 0.33 -2.64 0.66 -4 1 C-4 1.66 -4 2.32 -4 3 C-11.33590338 4.9122401 -17.62981212 5.04084459 -25.125 4.125 C-26.08148438 4.02058594 -27.03796875 3.91617187 -28.0234375 3.80859375 C-30.35084031 3.55257944 -32.67574104 3.28291422 -35 3 C-35 2.67 -35 2.34 -35 2 C-33.06060547 1.92652344 -33.06060547 1.92652344 -31.08203125 1.8515625 C-22.04222421 1.47381589 -13.24191244 0.97598871 -4.3359375 -0.6953125 C-2 -1 -2 -1 0 0 Z " fill="#86ADEB" transform="translate(318,289)"/>
<path d="M0 0 C0.66 0 1.32 0 2 0 C6 4.47058824 6 4.47058824 6 7 C6.99 7.33 7.98 7.66 9 8 C10.203125 9.5234375 10.203125 9.5234375 11.25 11.375 C11.78367187 12.28378906 11.78367187 12.28378906 12.328125 13.2109375 C13 15 13 15 12 18 C11.67 17.34 11.34 16.68 11 16 C10.34 16 9.68 16 9 16 C6 11.61538462 6 11.61538462 6 9 C5.01 9 4.02 9 3 9 C3 8.34 3 7.68 3 7 C2.01 7 1.02 7 0 7 C0 6.34 0 5.68 0 5 C-1.65 5.33 -3.3 5.66 -5 6 C-4.67 5.01 -4.34 4.02 -4 3 C-3.01 2.67 -2.02 2.34 -1 2 C-0.67 1.34 -0.34 0.68 0 0 Z " fill="#5B90E4" transform="translate(358,151)"/>
<path d="M0 0 C6.15234375 0.5859375 6.15234375 0.5859375 8 1 C8.33 1.66 8.66 2.32 9 3 C11.01521762 3.69031364 11.01521762 3.69031364 13.375 4.125 C14.56222656 4.37636719 14.56222656 4.37636719 15.7734375 4.6328125 C18.11723055 5.08135726 18.11723055 5.08135726 21 5 C21.99 6.485 21.99 6.485 23 8 C26.08365871 8.2502157 26.08365871 8.2502157 29 8 C29.33 8.99 29.66 9.98 30 11 C23.59464714 11.37635972 19.15519576 10.30846374 13.3125 7.75 C12.57966797 7.44964844 11.84683594 7.14929688 11.09179688 6.83984375 C6.86527414 5.04862131 3.46309875 3.08741743 0 0 Z " fill="#6494E3" transform="translate(257,280)"/>
<path d="M0 0 C2.375 1.25 2.375 1.25 4 3 C4.75 5.6875 4.75 5.6875 5 8 C5.99 8.33 6.98 8.66 8 9 C7.01 9.495 7.01 9.495 6 10 C4.16015625 9.2578125 4.16015625 9.2578125 2.0625 8.125 C-0.32134658 6.85064463 -2.41884944 5.86038352 -5 5 C-5.33 4.34 -5.66 3.68 -6 3 C-8.02463255 2.34786708 -8.02463255 2.34786708 -10 2 C-10 1.34 -10 0.68 -10 0 C-6.2195649 -1.26014503 -3.87795389 -0.81641135 0 0 Z " fill="#7FB8F3" transform="translate(323,222)"/>
<path d="M0 0 C0.33 0.99 0.66 1.98 1 3 C0.03114628 4.68496298 -0.96986723 6.35178756 -2 8 C-2 8.99 -2 9.98 -2 11 C-2.969375 11.2475 -3.93875 11.495 -4.9375 11.75 C-5.948125 12.1625 -6.95875 12.575 -8 13 C-8.96877057 15.03243548 -8.96877057 15.03243548 -9 17 C-9.66 17 -10.32 17 -11 17 C-11.66 18.32 -12.32 19.64 -13 21 C-13 20.34 -13 19.68 -13 19 C-13.66 18.67 -14.32 18.34 -15 18 C-13.42609449 15.86741811 -11.84167605 13.74425407 -10.25 11.625 C-9.8065625 11.02171875 -9.363125 10.4184375 -8.90625 9.796875 C-6.5039921 6.61741601 -4.62665975 4.61729421 -1 3 C-0.67 2.01 -0.34 1.02 0 0 Z " fill="#6396E5" transform="translate(245,148)"/>
<path d="M0 0 C0.66 0.33 1.32 0.66 2 1 C1.34 3.97 0.68 6.94 0 10 C-0.33 8.68 -0.66 7.36 -1 6 C-1.99 5.67 -2.98 5.34 -4 5 C-3.34 4.67 -2.68 4.34 -2 4 C-0.86649466 1.98330173 -0.86649466 1.98330173 0 0 Z M-1 10 C-1.33 10.99 -1.66 11.98 -2 13 C-3.85546875 13.6953125 -3.85546875 13.6953125 -6.1875 14.125 C-6.99445313 14.2796875 -7.80140625 14.434375 -8.6328125 14.59375 C-9.41398437 14.7278125 -10.19515625 14.861875 -11 15 C-12.7634375 15.309375 -12.7634375 15.309375 -14.5625 15.625 C-15.366875 15.74875 -16.17125 15.8725 -17 16 C-16.34 15.67 -15.68 15.34 -15 15 C-15 14.34 -15 13.68 -15 13 C-11.49138442 7.41811157 -6.69258675 9.00053821 -1 10 Z " fill="#5498F2" transform="translate(387,257)"/>
<path d="M0 0 C11.36202763 -0.54392685 21.10247824 0.75392969 32 4 C28.25 5.125 28.25 5.125 26 4 C26 4.66 26 5.32 26 6 C23.25619106 5.50112565 20.70758358 4.90045398 18.0625 4 C12.24827812 2.26092471 6.02161525 2.31736668 0 2 C0 1.34 0 0.68 0 0 Z " fill="#75A2E0" transform="translate(295,127)"/>
<path d="M0 0 C0.66 0 1.32 0 2 0 C3 3 3 3 2.0390625 5.15625 C1.57242187 5.9296875 1.10578125 6.703125 0.625 7.5 C-0.89765409 10.05193424 -2.05521967 12.16565902 -3 15 C-3.99 15.66 -4.98 16.32 -6 17 C-7.01868662 17.98095748 -8.02351983 18.97702078 -9 20 C-9.66 19.67 -10.32 19.34 -11 19 C-10.37240135 16.07120629 -9.41377341 13.63904371 -8 11 C-7.01 11 -6.02 11 -5 11 C-5 10.01 -5 9.02 -5 8 C-4.01 8 -3.02 8 -2 8 C-1.34 5.36 -0.68 2.72 0 0 Z " fill="#90C6F2" transform="translate(402,196)"/>
<path d="M0 0 C1.43931117 0.45261358 2.87638999 0.91232979 4.3125 1.375 C5.11300781 1.63023437 5.91351563 1.88546875 6.73828125 2.1484375 C9 3 9 3 12 5 C12 6.32 12 7.64 12 9 C12.598125 9.0825 13.19625 9.165 13.8125 9.25 C16.62219534 10.21332412 17.27912517 11.63379711 19 14 C21.08334635 15.2516467 21.08334635 15.2516467 23 16 C23 17.65 23 19.3 23 21 C20.95880212 19.38405168 18.95927063 17.7143618 17 16 C17 15.34 17 14.68 17 14 C16.01 13.67 15.02 13.34 14 13 C11.8125 11.0625 11.8125 11.0625 10 9 C10 8.34 10 7.68 10 7 C9.01 7 8.02 7 7 7 C7 6.34 7 5.68 7 5 C6.21625 4.731875 5.4325 4.46375 4.625 4.1875 C2 3 2 3 0 0 Z " fill="#97CCF1" transform="translate(328,236)"/>
<path d="M0 0 C0.33 0 0.66 0 1 0 C1.226875 0.99 1.45375 1.98 1.6875 3 C2.7718699 6.89423352 4.68992891 9.8987412 6.9765625 13.203125 C8 15 8 15 8 18 C8.99 18.33 9.98 18.66 11 19 C11.33 19.99 11.66 20.98 12 22 C9.97954558 21.39816251 7.97888961 20.72693904 6 20 C5.67 19.34 5.34 18.68 5 18 C5.33 17.34 5.66 16.68 6 16 C5.01 15.67 4.02 15.34 3 15 C3 14.34 3 13.68 3 13 C2.34 13 1.68 13 1 13 C0.63631108 11.39796533 0.28438048 9.79325797 -0.0625 8.1875 C-0.25972656 7.29417969 -0.45695313 6.40085938 -0.66015625 5.48046875 C-1 3 -1 3 0 0 Z " fill="#6C9AE1" transform="translate(251,224)"/>
<path d="M0 0 C3.02107902 -0.0543251 6.04116528 -0.09382927 9.0625 -0.125 C9.91005859 -0.14175781 10.75761719 -0.15851563 11.63085938 -0.17578125 C16.86523817 -0.21620116 21.027232 0.39506598 26 2 C27.03125 2 28.0625 2 29.125 2 C32.26760776 2 34.21879981 2.56966848 37 4 C37.495 4.99 37.495 4.99 38 6 C37.05125 5.979375 36.1025 5.95875 35.125 5.9375 C32.09333717 5.77448174 32.09333717 5.77448174 30 7 C28.31899821 6.29397925 26.64011678 5.58214086 24.9765625 4.8359375 C18.71585183 2.18812706 13.22256659 1.81839696 6.515625 2.125 C3.79592336 1.98985955 2.36431042 1.27299385 0 0 Z " fill="#6395EA" transform="translate(294,158)"/>
<path d="M0 0 C6.74832735 -0.32134892 11.72759381 0.56912772 18 3 C18.99 3.33 19.98 3.66 21 4 C21 3.34 21 2.68 21 2 C23.97 2.495 23.97 2.495 27 3 C26.67 3.99 26.34 4.98 26 6 C24.7315625 5.9690625 24.7315625 5.9690625 23.4375 5.9375 C19.88107223 6.00216232 16.50906497 6.4385496 13 7 C12.78601563 6.36578125 12.57203125 5.7315625 12.3515625 5.078125 C11.14561047 2.74386889 11.14561047 2.74386889 8.3984375 2.171875 C6.90183594 1.96304688 6.90183594 1.96304688 5.375 1.75 C3.87066406 1.52570313 3.87066406 1.52570313 2.3359375 1.296875 C1.56507813 1.19890625 0.79421875 1.1009375 0 1 C0 0.67 0 0.34 0 0 Z " fill="#4389F4" transform="translate(300,129)"/>
<path d="M0 0 C0.99 0.33 1.98 0.66 3 1 C4.203125 3.8359375 4.203125 3.8359375 5.25 7.375 C5.60578125 8.53773438 5.9615625 9.70046875 6.328125 10.8984375 C7 14 7 14 6 17 C6.99 17.33 7.98 17.66 9 18 C8.34 18.66 7.68 19.32 7 20 C7.99 20.66 8.98 21.32 10 22 C9.67 24.64 9.34 27.28 9 30 C8.67 30 8.34 30 8 30 C8 27.69 8 25.38 8 23 C7.34 23 6.68 23 6 23 C1.77676538 7.25512528 1.77676538 7.25512528 0 0 Z " fill="#81AAE6" transform="translate(347,186)"/>
<path d="M0 0 C0.33 0.66 0.66 1.32 1 2 C1.66 2 2.32 2 3 2 C3.12375 2.94875 3.2475 3.8975 3.375 4.875 C3.71687177 8.08667191 3.71687177 8.08667191 6 10 C6.66 9.67 7.32 9.34 8 9 C7.4740625 9.8971875 7.4740625 9.8971875 6.9375 10.8125 C5.66695302 13.10813214 5.66695302 13.10813214 7 16 C8.65 16.33 10.3 16.66 12 17 C12 17.66 12 18.32 12 19 C13.98 19.33 15.96 19.66 18 20 C18 20.33 18 20.66 18 21 C13.67640089 21.5294203 10.80304769 21.33391192 7.3125 18.75 C2.82860746 14.5387766 1.3591194 8.85012262 0 3 C0 2.01 0 1.02 0 0 Z " fill="#A4C5EE" transform="translate(352,207)"/>
<path d="M0 0 C4.09253234 2.02218579 8.07553938 4.2161421 12.0625 6.4375 C13.14241211 7.03014648 13.14241211 7.03014648 14.24414062 7.63476562 C14.93830078 8.02212891 15.63246094 8.40949219 16.34765625 8.80859375 C16.97679932 9.15720459 17.60594238 9.50581543 18.25415039 9.86499023 C20.09588362 11.06233575 21.50493448 12.39759056 23 14 C20.36 13.67 17.72 13.34 15 13 C15 12.34 15 11.68 15 11 C14.42765625 10.71382812 13.8553125 10.42765625 13.265625 10.1328125 C9.84375 8.421875 6.421875 6.7109375 3 5 C3 4.34 3 3.68 3 3 C2.34 3 1.68 3 1 3 C0.67 2.01 0.34 1.02 0 0 Z " fill="#ACD5F0" transform="translate(312,214)"/>
<path d="M0 0 C0.33 0 0.66 0 1 0 C1.27908468 5.42121998 0.42721053 9.37857235 -1.5 14.4375 C-1.73847656 15.07365234 -1.97695313 15.70980469 -2.22265625 16.36523438 C-2.80490924 17.91402732 -3.40101069 19.45760253 -4 21 C-6.67927341 16.98108988 -6.15601248 14.75838077 -6 10 C-5.01 10 -4.02 10 -3 10 C-2.87625 8.906875 -2.7525 7.81375 -2.625 6.6875 C-2 3 -2 3 0 0 Z " fill="#8EC9E3" transform="translate(425,165)"/>
<path d="M0 0 C1.08408708 3.25226125 0.85515633 4.62679854 0.3125 7.9375 C-0.27565782 12.05025417 -0.27565782 12.05025417 1.9375 15.5 C2.618125 15.995 3.29875 16.49 4 17 C4 17.66 4 18.32 4 19 C0.04 19 -3.92 19 -8 19 C-8 18.34 -8 17.68 -8 17 C-4.535 16.505 -4.535 16.505 -1 16 C-1.66 15.01 -2.32 14.02 -3 13 C-4.56462585 6.1292517 -4.56462585 6.1292517 -3 3 C-2.34 3 -1.68 3 -1 3 C-0.67 2.01 -0.34 1.02 0 0 Z " fill="#77C5F8" transform="translate(381,247)"/>
<path d="M0 0 C3.875 3.75 3.875 3.75 5 6 C5.99 6.66 6.98 7.32 8 8 C7.34 9.32 6.68 10.64 6 12 C6.33 12.33 6.66 12.66 7 13 C7.04092937 15.33297433 7.04241723 17.66705225 7 20 C4.18531401 16.71754385 3.03708147 13.56166518 1.8125 9.4375 C1.46832031 8.30183594 1.12414062 7.16617188 0.76953125 5.99609375 C0 3 0 3 0 0 Z " fill="#578FE6" transform="translate(220,226)"/>
<path d="M0 0 C0.66 0.33 1.32 0.66 2 1 C1 3 0 5 -1 7 C-0.34 7 0.32 7 1 7 C1 6.34 1 5.68 1 5 C2.32 5 3.64 5 5 5 C4.67 7.31 4.34 9.62 4 12 C3.34 12 2.68 12 2 12 C1.34 13.32 0.68 14.64 0 16 C0 13.66666667 0 11.33333333 0 9 C-0.99 9.33 -1.98 9.66 -3 10 C-2.49287967 6.28111761 -1.88391785 3.26545761 0 0 Z " fill="#82C5DC" transform="translate(432,133)"/>
<path d="M0 0 C0.99 0 1.98 0 3 0 C2.85805236 2.06277107 2.71127784 4.12521031 2.5625 6.1875 C2.48128906 7.33605469 2.40007812 8.48460937 2.31640625 9.66796875 C2.04596188 12.51598171 1.62478253 15.21210482 1 18 C0.34 17.34 -0.32 16.68 -1 16 C-1.66 17.32 -2.32 18.64 -3 20 C-5.64784346 14.70431308 -1.70686341 5.48634668 0 0 Z " fill="#9EC2F8" transform="translate(410,196)"/>
<path d="M0 0 C0.66 0 1.32 0 2 0 C1.74279326 1.58560393 1.46861201 3.16845924 1.1875 4.75 C1.03667969 5.63171875 0.88585937 6.5134375 0.73046875 7.421875 C-0.05414248 10.1910911 -1.14595359 11.8259401 -3 14 C-4.32 13.34 -5.64 12.68 -7 12 C-6.02296079 10.1863523 -5.04330895 8.37411183 -4.0625 6.5625 C-3.51722656 5.55316406 -2.97195313 4.54382813 -2.41015625 3.50390625 C-1 1 -1 1 0 0 Z " fill="#89CCDD" transform="translate(444,112)"/>
<path d="M0 0 C4.64431877 0.44656911 7.4575908 0.94619897 11 4 C14.38212829 6.14201459 17.03490997 6.18023137 21 6 C21.33 6.99 21.66 7.98 22 9 C15.24520726 9.7342166 10.81475715 7.27591952 5 4 C5 3.34 5 2.68 5 2 C3.35 1.67 1.7 1.34 0 1 C0 0.67 0 0.34 0 0 Z " fill="#67B6E9" transform="translate(393,279)"/>
<path d="M0 0 C0.33 0.99 0.66 1.98 1 3 C0.01 3.33 -0.98 3.66 -2 4 C-1.01 4.33 -0.02 4.66 1 5 C0.6875 6.9375 0.6875 6.9375 0 9 C-0.99 9.33 -1.98 9.66 -3 10 C-3.66 9.67 -4.32 9.34 -5 9 C-5.73075648 6.6859378 -6.40138258 4.35171131 -7 2 C-4 0 -4 0 0 0 Z " fill="#4086F1" transform="translate(238,248)"/>
<path d="M0 0 C1.32 0.33 2.64 0.66 4 1 C3.01 1.33 2.02 1.66 1 2 C1 2.66 1 3.32 1 4 C2.32 4 3.64 4 5 4 C5 4.66 5 5.32 5 6 C-4.405 6.495 -4.405 6.495 -14 7 C-14.33 6.34 -14.66 5.68 -15 5 C-10.27616037 4.34843591 -5.78025483 3.88049363 -1 4 C-0.67 2.68 -0.34 1.36 0 0 Z " fill="#4987EB" transform="translate(304,152)"/>
<path d="M0 0 C0.928125 0.33 1.85625 0.66 2.8125 1 C5.92029291 2.14967004 5.92029291 2.14967004 9 2 C9.66 2.33 10.32 2.66 11 3 C10.67 4.98 10.34 6.96 10 9 C7.03 8.505 7.03 8.505 4 8 C3.87625 7.071875 3.87625 7.071875 3.75 6.125 C3.18741541 3.81562433 3.18741541 3.81562433 0.9375 2.75 C0.298125 2.5025 -0.34125 2.255 -1 2 C-0.67 1.34 -0.34 0.68 0 0 Z " fill="#4286F2" transform="translate(253,272)"/>
<path d="M0 0 C0.66 0.33 1.32 0.66 2 1 C2.99 0.67 3.98 0.34 5 0 C4.814375 0.804375 4.62875 1.60875 4.4375 2.4375 C4.2209375 3.7059375 4.2209375 3.7059375 4 5 C4.33 5.33 4.66 5.66 5 6 C5.66 5.34 6.32 4.68 7 4 C6.34 6.97 5.68 9.94 5 13 C4.67 12.01 4.34 11.02 4 10 C1.98491642 9.26676204 1.98491642 9.26676204 0 9 C0 7.68 0 6.36 0 5 C-0.66 4.34 -1.32 3.68 -2 3 C-1.34 2.01 -0.68 1.02 0 0 Z " fill="#9ADDEC" transform="translate(428,141)"/>
<path d="M0 0 C-1.485 1.485 -1.485 1.485 -3 3 C-2.34 4.32 -1.68 5.64 -1 7 C-2.98 7.33 -4.96 7.66 -7 8 C-7 7.34 -7 6.68 -7 6 C-8.32 6 -9.64 6 -11 6 C-10.74609375 4.11328125 -10.74609375 4.11328125 -10 2 C-8.22265625 0.91796875 -8.22265625 0.91796875 -6.0625 0.1875 C-5.35222656 -0.06644531 -4.64195312 -0.32039062 -3.91015625 -0.58203125 C-2 -1 -2 -1 0 0 Z " fill="#4587F3" transform="translate(272,136)"/>
<path d="M0 0 C-0.7265625 1.9609375 -0.7265625 1.9609375 -2 4 C-4.0234375 4.5390625 -4.0234375 4.5390625 -6.375 4.625 C-9.829857 4.77521117 -11.93955674 5.42458195 -15 7 C-17.25 6.625 -17.25 6.625 -19 6 C-12.94437266 2.29247306 -7.30693111 -0.44284431 0 0 Z " fill="#6796E0" transform="translate(281,131)"/>
<path d="M0 0 C0 1.32 0 2.64 0 4 C-2.97 3.505 -2.97 3.505 -6 3 C-6 2.01 -6 1.02 -6 0 C-8.97 0 -11.94 0 -15 0 C-14.67 -0.66 -14.34 -1.32 -14 -2 C-8.17389609 -3.51478702 -5.15047317 -2.62779243 0 0 Z " fill="#5CA9F4" transform="translate(395,275)"/>
<path d="M0 0 C1.37473375 4.27694946 0.38688443 6.83934671 -1 11 C-0.01 11.33 0.98 11.66 2 12 C1.2884375 12.61875 1.2884375 12.61875 0.5625 13.25 C-1.16266518 15.182185 -1.56584875 16.48192275 -2 19 C-2.66 19 -3.32 19 -4 19 C-4.18130023 14.37684419 -3.89069368 11.20154151 -2 7 C-1.31320058 4.67251306 -0.64238957 2.34013344 0 0 Z " fill="#3B8FE5" transform="translate(361,277)"/>
<path d="M0 0 C0.66 0 1.32 0 2 0 C2 0.66 2 1.32 2 2 C2.99 2.33 3.98 2.66 5 3 C8.82500731 10.08334686 8.92612515 18.11885656 8 26 C6.4765625 28.453125 6.4765625 28.453125 5 30 C5.165 29.2575 5.33 28.515 5.5 27.75 C6.69305945 18.80205414 6.84280077 11.77676035 2 4 C1.32213714 2.67232377 0.65252079 1.34031297 0 0 Z " fill="#96D8F2" transform="translate(351,257)"/>
<path d="M0 0 C7.26 0 14.52 0 22 0 C22 0.99 22 1.98 22 3 C19.64558284 2.85758352 17.29152516 2.71115192 14.9375 2.5625 C13.62652344 2.48128906 12.31554687 2.40007812 10.96484375 2.31640625 C7.26336762 2.02101751 3.66629552 1.56734612 0 1 C0 0.67 0 0.34 0 0 Z " fill="#A5C4F2" transform="translate(310,260)"/>
<path d="M0 0 C3.26709987 -0.22275681 5.39572708 -0.32663401 8.3125 1.25 C10 3 10 3 10.5 5.0625 C10.81523431 7.21635115 10.81523431 7.21635115 13.0625 8.25 C13.701875 8.4975 14.34125 8.745 15 9 C13.359375 9.7734375 13.359375 9.7734375 11 10 C8.203125 8.1640625 8.203125 8.1640625 5.25 5.625 C4.26515625 4.79226562 3.2803125 3.95953125 2.265625 3.1015625 C1.51796875 2.40804687 0.7703125 1.71453125 0 1 C0 0.67 0 0.34 0 0 Z " fill="#9FD0F1" transform="translate(314,226)"/>
<path d="M0 0 C0 0.66 0 1.32 0 2 C-1.21236328 2.12955078 -1.21236328 2.12955078 -2.44921875 2.26171875 C-9.49112846 2.95089316 -9.49112846 2.95089316 -15.25 6.625 C-15.8275 7.40875 -16.405 8.1925 -17 9 C-17.33 8.01 -17.66 7.02 -18 6 C-12.56892697 -0.2281247 -8.04319656 -0.7854116 0 0 Z " fill="#8ED3F6" transform="translate(389,275)"/>
<path d="M0 0 C0.99 0.33 1.98 0.66 3 1 C3 2.32 3 3.64 3 5 C3.66 5 4.32 5 5 5 C5 4.34 5 3.68 5 3 C6.32 3.66 7.64 4.32 9 5 C8.67 8.3 8.34 11.6 8 15 C6 12 6 12 5 9.375 C4.23952738 6.84860062 4.23952738 6.84860062 2 6 C2 5.34 2 4.68 2 4 C1.34 4 0.68 4 0 4 C0 2.68 0 1.36 0 0 Z " fill="#5CA7F2" transform="translate(351,253)"/>
<path d="M0 0 C0.99413172 3.97652689 1.36350358 6.9287599 1 11 C-0.875 13.1875 -0.875 13.1875 -3 15 C-4.23512079 17.13309192 -4.23512079 17.13309192 -5 19 C-5.66 18.67 -6.32 18.34 -7 18 C-6.690625 17.46375 -6.38125 16.9275 -6.0625 16.375 C-4.82172561 13.6015043 -4.4090325 10.99957163 -4 8 C-3.34 8 -2.68 8 -2 8 C-1.34 5.36 -0.68 2.72 0 0 Z " fill="#74BAEF" transform="translate(392,213)"/>
<path d="M0 0 C0.99 0.33 1.98 0.66 3 1 C2.67 1.99 2.34 2.98 2 4 C1.34 4 0.68 4 0 4 C-0.84454356 7.37817425 -1.10844919 9.67465243 0 13 C0.99 12.67 1.98 12.34 3 12 C2.34 13.65 1.68 15.3 1 17 C0.34 16.01 -0.32 15.02 -1 14 C-2.31387169 12.64748503 -3.64426252 11.31054623 -5 10 C-3.89642421 6.17992994 -3.03443837 3.62065132 0 1 C0 0.67 0 0.34 0 0 Z " fill="#A4DBF3" transform="translate(426,151)"/>
<path d="M0 0 C6.56351224 1.84598782 11.3373347 7.26493307 16 12 C15.67 12.66 15.34 13.32 15 14 C10.99292806 11.82473237 8.13735352 9.2942212 5 6 C4.071875 5.0925 3.14375 4.185 2.1875 3.25 C0 1 0 1 0 0 Z " fill="#6C9ADF" transform="translate(241,266)"/>
<path d="M0 0 C0.99 0.33 1.98 0.66 3 1 C3.6875 3.8125 3.6875 3.8125 4 7 C3.03425636 8.03312111 2.02868997 9.02953777 1 10 C-0.19599068 12.03232242 -0.19599068 12.03232242 -1.1875 14.1875 C-1.53167969 14.90292969 -1.87585938 15.61835938 -2.23046875 16.35546875 C-2.48441406 16.89816406 -2.73835938 17.44085938 -3 18 C-3.66 17.67 -4.32 17.34 -5 17 C-4.54625 16.360625 -4.0925 15.72125 -3.625 15.0625 C-1.12299883 10.34719011 0 5.33639325 0 0 Z " fill="#A3D1F6" transform="translate(409,178)"/>
<path d="M0 0 C0.33 0.66 0.66 1.32 1 2 C1.66 2 2.32 2 3 2 C4.2890625 3.42578125 4.2890625 3.42578125 5.625 5.3125 C6.29402344 6.23482422 6.29402344 6.23482422 6.9765625 7.17578125 C8 9 8 9 8 12 C8.66 12 9.32 12 10 12 C10 12.99 10 13.98 10 15 C7.03824877 14.38722388 5.61941217 13.74627478 3 12 C4.32 12 5.64 12 7 12 C6.21625 11.236875 5.4325 10.47375 4.625 9.6875 C0 4.95238095 0 4.95238095 0 0 Z " fill="#9ECFEB" transform="translate(408,276)"/>
<path d="M0 0 C0.66 0.33 1.32 0.66 2 1 C1.67 1.99 1.34 2.98 1 4 C-1.6171875 5.16796875 -1.6171875 5.16796875 -4.875 6.1875 C-5.94492187 6.53167969 -7.01484375 6.87585938 -8.1171875 7.23046875 C-11 8 -11 8 -14 8 C-14 7.34 -14 6.68 -14 6 C-12.0429132 5.32968281 -10.08428887 4.66385317 -8.125 4 C-7.03445313 3.62875 -5.94390625 3.2575 -4.8203125 2.875 C-2 2 -2 2 0 2 C0 1.34 0 0.68 0 0 Z " fill="#AAC4EE" transform="translate(328,284)"/>
<path d="M0 0 C3 0 3 0 5.25 2.0625 C7.49609922 5.83273798 6.98349247 7.82015699 6 12 C4.0625 10.9375 4.0625 10.9375 2 9 C1.3125 5.4375 1.3125 5.4375 1 2 C0.67 1.34 0.34 0.68 0 0 Z " fill="#3E85F1" transform="translate(225,237)"/>
<path d="M0 0 C0.66 0.33 1.32 0.66 2 1 C1.85769192 2.41702513 1.71099254 3.8336096 1.5625 5.25 C1.48128906 6.03890625 1.40007812 6.8278125 1.31640625 7.640625 C0.72771414 12.03037849 0.72771414 12.03037849 0 14 C-0.99 14.33 -1.98 14.66 -3 15 C-2.22095672 4.44191344 -2.22095672 4.44191344 0 0 Z " fill="#5FA5F5" transform="translate(383,245)"/>
<path d="M0 0 C0.66 0 1.32 0 2 0 C1.27246734 3.80718548 0.38723428 7.55485569 -0.5625 11.3125 C-0.83191406 12.38113281 -1.10132813 13.44976562 -1.37890625 14.55078125 C-1.68634766 15.76314453 -1.68634766 15.76314453 -2 17 C-4.08168944 13.65220841 -4.1006308 11.74809609 -3.25 7.9375 C-3.06953125 7.08027344 -2.8890625 6.22304687 -2.703125 5.33984375 C-2 3 -2 3 0 0 Z " fill="#739DE0" transform="translate(253,186)"/>
<path d="M0 0 C0.33 0 0.66 0 1 0 C1 4.29 1 8.58 1 13 C-2 12 -2 12 -3.25 10.1875 C-4.15192991 7.5568711 -4.0393867 6.55849033 -3 4 C-1.5 1.75 -1.5 1.75 0 0 Z " fill="#5497ED" transform="translate(396,251)"/>
<path d="M0 0 C0.85271484 0.30744141 0.85271484 0.30744141 1.72265625 0.62109375 C6.5084454 2.29092669 10.95943201 3.46376936 16 4 C16 4.33 16 4.66 16 5 C13.36 5.33 10.72 5.66 8 6 C8 5.34 8 4.68 8 4 C3.545 4.495 3.545 4.495 -1 5 C-0.67 3.35 -0.34 1.7 0 0 Z " fill="#7CA7E7" transform="translate(274,255)"/>
<path d="M0 0 C0.99 0.66 1.98 1.32 3 2 C3.1875 5.625 3.1875 5.625 3 9 C1.25 8.875 1.25 8.875 -1 8 C-3.25 4.9375 -3.25 4.9375 -5 2 C-3.35 2 -1.7 2 0 2 C0 1.34 0 0.68 0 0 Z " fill="#5B93E9" transform="translate(238,255)"/>
<path d="M0 0 C1.98 0 3.96 0 6 0 C6 0.66 6 1.32 6 2 C6.99 2.33 7.98 2.66 9 3 C8.34 4.32 7.68 5.64 7 7 C1.125 3.375 1.125 3.375 0 0 Z " fill="#86D3FC" transform="translate(365,256)"/>
<path d="M0 0 C1.32 0.33 2.64 0.66 4 1 C4 1.66 4 2.32 4 3 C4.70125 3.268125 5.4025 3.53625 6.125 3.8125 C9.1649824 5.0681449 12.0727774 6.50235123 15 8 C15 8.33 15 8.66 15 9 C10.81313194 9.34890567 9.17472537 8.67867453 6 6 C4.6696875 5.2575 4.6696875 5.2575 3.3125 4.5 C1 3 1 3 0 0 Z " fill="#A0D3F3" transform="translate(335,228)"/>
<path d="M0 0 C2.97 0.495 2.97 0.495 6 1 C6 2.65 6 4.3 6 6 C6.99 6 7.98 6 9 6 C8.67 7.65 8.34 9.3 8 11 C5.0843836 7.45960866 2.49872182 3.8373228 0 0 Z " fill="#75A4E7" transform="translate(339,175)"/>
<path d="M0 0 C5.94 0.33 11.88 0.66 18 1 C17.67 1.66 17.34 2.32 17 3 C14.72975032 3.08097324 12.45867925 3.13917704 10.1875 3.1875 C8.29064453 3.23970703 8.29064453 3.23970703 6.35546875 3.29296875 C3 3 3 3 0 0 Z " fill="#6AB5EB" transform="translate(359,242)"/>
<path d="M0 0 C1.48199902 0.44909061 2.96055236 0.90956564 4.4375 1.375 C5.26121094 1.63023437 6.08492188 1.88546875 6.93359375 2.1484375 C9 3 9 3 10 5 C7.25 5.75 7.25 5.75 4 6 C1.625 4.1875 1.625 4.1875 0 2 C0 1.34 0 0.68 0 0 Z " fill="#8EC6F1" transform="translate(350,237)"/>
<path d="M0 0 C3.08315385 -0.08733513 6.16598827 -0.14050127 9.25 -0.1875 C10.12269531 -0.21263672 10.99539063 -0.23777344 11.89453125 -0.26367188 C18.41598332 -0.33834499 18.41598332 -0.33834499 21.609375 1.51171875 C22.06828125 2.00285156 22.5271875 2.49398437 23 3 C21.906875 2.835 20.81375 2.67 19.6875 2.5 C15.27281979 1.92554072 10.95828675 2.00148976 6.515625 2.16015625 C3.81620562 1.98829881 2.35133663 1.26320483 0 0 Z " fill="#7AA3E2" transform="translate(294,158)"/>
<path d="M0 0 C-0.33 0.99 -0.66 1.98 -1 3 C-2.65 3 -4.3 3 -6 3 C-6 2.34 -6 1.68 -6 1 C-7.98 1 -9.96 1 -12 1 C-12.33 1.66 -12.66 2.32 -13 3 C-13 2.01 -13 1.02 -13 0 C-8.37078475 -1.0161692 -4.65537393 -0.83796731 0 0 Z " fill="#6DBBF5" transform="translate(377,255)"/>
<path d="M0 0 C1.125 3.75 1.125 3.75 0 6 C-0.66 6 -1.32 6 -2 6 C-1.9175 6.928125 -1.835 7.85625 -1.75 8.8125 C-2 12 -2 12 -4 13.875 C-4.99 14.431875 -4.99 14.431875 -6 15 C-5.39644592 11.14974121 -4.23227397 8.13898841 -2.4375 4.6875 C-1.98246094 3.80449219 -1.52742188 2.92148438 -1.05859375 2.01171875 C-0.53458984 1.01591797 -0.53458984 1.01591797 0 0 Z " fill="#97CCE9" transform="translate(390,215)"/>
<path d="M0 0 C3.3 0.33 6.6 0.66 10 1 C9.67 2.65 9.34 4.3 9 6 C4.1729513 4.71278701 3.16077395 4.21436527 0 0 Z " fill="#5991E7" transform="translate(334,170)"/>
<path d="M0 0 C0.99 1.485 0.99 1.485 2 3 C5.58357241 3.25015873 5.58357241 3.25015873 9 3 C9 3.99 9 4.98 9 6 C6.08517222 6.80967438 4.53886783 7.21845993 1.6875 6.0625 C1.130625 5.711875 0.57375 5.36125 0 5 C0 3.35 0 1.7 0 0 Z " fill="#4187F0" transform="translate(334,165)"/>
<path d="M0 0 C2.56316239 2.49836334 4.47384477 4.71876625 6 8 C5.6875 11.3125 5.6875 11.3125 5 14 C2.99006295 10.98509443 2.27376659 8.7850073 1.375 5.3125 C1.11460937 4.31863281 0.85421875 3.32476562 0.5859375 2.30078125 C0.39257812 1.54152344 0.19921875 0.78226563 0 0 Z " fill="#91B3E3" transform="translate(371,168)"/>
<path d="M0 0 C1.20628008 2.33214148 2.1654738 4.49642139 3 7 C-0.55780196 6.39009109 -3.6828589 5.4216319 -7 4 C-3.25 2.875 -3.25 2.875 -1 4 C-0.67 2.68 -0.34 1.36 0 0 Z " fill="#3A97EC" transform="translate(409,279)"/>
<path d="M0 0 C0.66 0 1.32 0 2 0 C1.68853528 1.89600369 1.37578283 3.79179587 1.0625 5.6875 C0.88847656 6.74324219 0.71445312 7.79898438 0.53515625 8.88671875 C0.06832879 11.60249604 -0.44422616 14.30124235 -1 17 C-1.33 17 -1.66 17 -2 17 C-1.85941524 14.54126232 -1.71277001 12.08314825 -1.5625 9.625 C-1.52318359 8.92632812 -1.48386719 8.22765625 -1.44335938 7.5078125 C-1.11328125 2.2265625 -1.11328125 2.2265625 0 0 Z " fill="#8FCFED" transform="translate(401,233)"/>
<path d="M0 0 C0.99 0 1.98 0 3 0 C4.0257259 4.41062136 4.03684712 6.92630576 2 11 C-0.67927341 6.98108988 -0.15601248 4.75838077 0 0 Z " fill="#9FD3EB" transform="translate(419,175)"/>
<path d="M0 0 C0.33 0.99 0.66 1.98 1 3 C0.34 3 -0.32 3 -1 3 C-1 3.66 -1 4.32 -1 5 C-3.78823655 6.0326802 -4.8677274 6.04509293 -7.75 5.0625 C-8.4925 4.711875 -9.235 4.36125 -10 4 C-10 3.67 -10 3.34 -10 3 C-8.02 3 -6.04 3 -4 3 C-4.33 2.34 -4.66 1.68 -5 1 C-3.35 1.33 -1.7 1.66 0 2 C0 1.34 0 0.68 0 0 Z " fill="#4486EE" transform="translate(335,160)"/>
<path d="M0 0 C0.99 0.33 1.98 0.66 3 1 C2.50168276 4.68754757 1.89932357 6.60490662 -1 9 C-1.80967438 6.08517222 -2.21845993 4.53886783 -1.0625 1.6875 C-0.711875 1.130625 -0.36125 0.57375 0 0 Z " fill="#87CCDD" transform="translate(426,145)"/>
<path d="M0 0 C2.97 0.99 5.94 1.98 9 3 C9 3.33 9 3.66 9 4 C7.02 4 5.04 4 3 4 C2.67 4.66 2.34 5.32 2 6 C1.67 5.01 1.34 4.02 1 3 C0.34 3 -0.32 3 -1 3 C-0.67 2.01 -0.34 1.02 0 0 Z " fill="#B3E1EF" transform="translate(281,198)"/>
<path d="M0 0 C1.46726798 3.81489674 0.43336419 6.29011622 -1 10 C-1.99 10 -2.98 10 -4 10 C-3.5205537 5.78087253 -2.83374881 3.20336822 0 0 Z " fill="#8FC7E2" transform="translate(409,180)"/>
<path d="M0 0 C2.36150039 1.18075019 2.87241994 2.12464639 4.1875 4.375 C4.55230469 4.98085937 4.91710937 5.58671875 5.29296875 6.2109375 C6 8 6 8 5 11 C4.67 10.34 4.34 9.68 4 9 C3.34 9 2.68 9 2 9 C0 3.375 0 3.375 0 0 Z " fill="#78A1E0" transform="translate(365,158)"/>
<path d="M0 0 C-0.9075 0.598125 -1.815 1.19625 -2.75 1.8125 C-5.22901481 3.48106766 -7.63317911 5.17936855 -10 7 C-9.38722388 4.03824877 -8.74627478 2.61941217 -7 0 C-3.86650268 -1.04449911 -3.01031744 -0.93423645 0 0 Z " fill="#4797EA" transform="translate(380,275)"/>
<path d="M0 0 C2.31 0.66 4.62 1.32 7 2 C7 2.66 7 3.32 7 4 C9.97 4.495 9.97 4.495 13 5 C13 5.33 13 5.66 13 6 C7.00186278 6.59981372 7.00186278 6.59981372 4.19921875 4.921875 C2.5625 3.5625 2.5625 3.5625 0 1 C0 0.67 0 0.34 0 0 Z " fill="#BECFF0" transform="translate(357,222)"/>
<path d="M0 0 C1.94566951 3.47547073 2.07637127 5.12506344 1 9 C0.34 8.34 -0.32 7.68 -1 7 C-1.66 8.32 -2.32 9.64 -3 11 C-3.33 10.34 -3.66 9.68 -4 9 C-3.22265625 6.8359375 -3.22265625 6.8359375 -2.0625 4.375 C-1.68222656 3.55773437 -1.30195313 2.74046875 -0.91015625 1.8984375 C-0.60980469 1.27195313 -0.30945313 0.64546875 0 0 Z " fill="#94C9F7" transform="translate(410,205)"/>
<path d="M0 0 C0.66 0 1.32 0 2 0 C1.82374165 2.37948772 1.30280227 3.70225849 -0.40234375 5.37890625 C-1.90649092 6.62115486 -3.45129851 7.81376056 -5 9 C-5 7.35 -5 5.7 -5 4 C-4.01 4 -3.02 4 -2 4 C-1.34 2.68 -0.68 1.36 0 0 Z " fill="#4786E8" transform="translate(258,140)"/>
<path d="M0 0 C0.66 0 1.32 0 2 0 C1.38461538 5.53846154 1.38461538 5.53846154 -0.5625 7.875 C-1.036875 8.24625 -1.51125 8.6175 -2 9 C-2.6875 6.75 -2.6875 6.75 -3 4 C-1.6875 1.6875 -1.6875 1.6875 0 0 Z " fill="#7BB9CA" transform="translate(444,112)"/>
<path d="M0 0 C-0.639375 0.103125 -1.27875 0.20625 -1.9375 0.3125 C-2.9584375 0.6528125 -2.9584375 0.6528125 -4 1 C-4.33 1.99 -4.66 2.98 -5 4 C-7.0625 4.6875 -7.0625 4.6875 -9 5 C-8.8125 3.125 -8.8125 3.125 -8 1 C-4.70594381 -0.82039948 -3.63772813 -1.21257604 0 0 Z " fill="#BED0F1" transform="translate(338,283)"/>
<path d="M0 0 C2 2 2 2 2.1875 5.5 C2 9 2 9 1 11 C0.34 11 -0.32 11 -1 11 C-0.67 7.37 -0.34 3.74 0 0 Z " fill="#77C2F5" transform="translate(371,261)"/>
<path d="M0 0 C1 3 1 3 0.25 5.625 C-1 8 -1 8 -4 9 C-3.6875 5.625 -3.6875 5.625 -3 2 C-2.01 1.34 -1.02 0.68 0 0 Z " fill="#63A4EC" transform="translate(378,247)"/>
<path d="M0 0 C1.32 0 2.64 0 4 0 C4.103125 0.639375 4.20625 1.27875 4.3125 1.9375 C4.539375 2.618125 4.76625 3.29875 5 4 C5.99 4.33 6.98 4.66 8 5 C7.01 5.495 7.01 5.495 6 6 C3.96855359 5.06553465 1.96466413 4.06775224 0 3 C0 2.01 0 1.02 0 0 Z " fill="#7FAFEB" transform="translate(323,226)"/>
<path d="M0 0 C0.33 0 0.66 0 1 0 C1.19477739 1.62414378 1.38059458 3.24936423 1.5625 4.875 C1.66691406 5.77992188 1.77132812 6.68484375 1.87890625 7.6171875 C2 10 2 10 1 12 C-1.32488647 8.36736489 -1.23961213 5.23314767 -1 1 C-0.67 0.67 -0.34 0.34 0 0 Z " fill="#4B80DF" transform="translate(249,219)"/>
<path d="M0 0 C1.25541557 3.76624671 0.37061958 5.37188934 -1 9 C-1.33 8.01 -1.66 7.02 -2 6 C-4.01508358 5.26676204 -4.01508358 5.26676204 -6 5 C-5.67 4.01 -5.34 3.02 -5 2 C-3.68 2 -2.36 2 -1 2 C-0.67 1.34 -0.34 0.68 0 0 Z " fill="#A8E1F4" transform="translate(434,145)"/>
<path d="M0 0 C2.5 1.375 2.5 1.375 5 3 C5 3.66 5 4.32 5 5 C5.99 5 6.98 5 8 5 C7.67 5.66 7.34 6.32 7 7 C4.36 6.01 1.72 5.02 -1 4 C-0.67 2.68 -0.34 1.36 0 0 Z " fill="#7BA7E1" transform="translate(348,142)"/>
<path d="M0 0 C6.75 1.75 6.75 1.75 9 4 C6.36 4 3.72 4 1 4 C0.67 2.68 0.34 1.36 0 0 Z " fill="#3E89F4" transform="translate(265,280)"/>
<path d="M0 0 C1.485 0.99 1.485 0.99 3 2 C2.34 2 1.68 2 1 2 C1.33 2.99 1.66 3.98 2 5 C2.068991 7.06145107 2.08467727 9.12501401 2.0625 11.1875 C2.05347656 12.27417969 2.04445313 13.36085938 2.03515625 14.48046875 C2.02355469 15.31191406 2.01195312 16.14335937 2 17 C1.67 17 1.34 17 1 17 C0.63917123 14.35491639 0.28604648 11.70920453 -0.0625 9.0625 C-0.16626953 8.30775391 -0.27003906 7.55300781 -0.37695312 6.77539062 C-0.62665638 4.85525872 -0.81790281 2.92771856 -1 1 C-0.67 0.67 -0.34 0.34 0 0 Z " fill="#509AEC" transform="translate(359,261)"/>
<path d="M0 0 C2 0 2 0 4.125 1.875 C6 4 6 4 6 6 C2.04 6 -1.92 6 -6 6 C-6 5.34 -6 4.68 -6 4 C-2.535 3.505 -2.535 3.505 1 3 C0.67 2.01 0.34 1.02 0 0 Z " fill="#9CD7FC" transform="translate(379,260)"/>
<path d="M0 0 C0.33 0.66 0.66 1.32 1 2 C0.01 3.485 0.01 3.485 -1 5 C-4.96 4.67 -8.92 4.34 -13 4 C-13 3.67 -13 3.34 -13 3 C-12.22914063 2.95101562 -11.45828125 2.90203125 -10.6640625 2.8515625 C-9.66117187 2.77679688 -8.65828125 2.70203125 -7.625 2.625 C-6.62726563 2.55539063 -5.62953125 2.48578125 -4.6015625 2.4140625 C-1.84491121 2.23636036 -1.84491121 2.23636036 0 0 Z " fill="#A1E0F4" transform="translate(376,239)"/>
<path d="M0 0 C1.485 0.99 1.485 0.99 3 2 C3.1875 4.625 3.1875 4.625 3 7 C2.01 7.33 1.02 7.66 0 8 C-0.98120464 4.94736336 -0.98120464 3.05263664 0 0 Z " fill="#4187F3" transform="translate(249,230)"/>
<path d="M0 0 C0.99 0.33 1.98 0.66 3 1 C2.835 1.598125 2.67 2.19625 2.5 2.8125 C1.8885876 5.11344336 1.8885876 5.11344336 2 8 C1.01 8.495 1.01 8.495 0 9 C0 6.03 0 3.06 0 0 Z M-2 9 C-1.01 9.495 -1.01 9.495 0 10 C-0.99 10.495 -0.99 10.495 -2 11 C-2 10.34 -2 9.68 -2 9 Z " fill="#4986EF" transform="translate(227,174)"/>
<path d="M0 0 C0.66 0.33 1.32 0.66 2 1 C1.01 2.485 1.01 2.485 0 4 C-0.99 4 -1.98 4 -3 4 C-3 5.65 -3 7.3 -3 9 C-3.66 8.67 -4.32 8.34 -5 8 C-5 7.34 -5 6.68 -5 6 C-5.66 5.67 -6.32 5.34 -7 5 C-4.69 3.35 -2.38 1.7 0 0 Z " fill="#75A3E1" transform="translate(256,140)"/>
<path d="M0 0 C0.66 0 1.32 0 2 0 C4 3 4 3 4 6 C2.68 6 1.36 6 0 6 C0 6.66 0 7.32 0 8 C-0.66 8 -1.32 8 -2 8 C-1.67 7.05125 -1.34 6.1025 -1 5.125 C0.10159191 2.22937548 0.10159191 2.22937548 0 0 Z " fill="#5EB7CF" transform="translate(433,132)"/>
<path d="M0 0 C3.3125 0.1875 3.3125 0.1875 7 1 C8.9375 3.5625 8.9375 3.5625 10 6 C7.525 5.01 7.525 5.01 5 4 C5 3.34 5 2.68 5 2 C3.35 1.67 1.7 1.34 0 1 C0 0.67 0 0.34 0 0 Z " fill="#8BC6F2" transform="translate(393,279)"/>
<path d="M0 0 C3 1 3 1 4.75 3.3125 C6.14972335 6.32190521 5.95287489 6.98041673 5 10 C4.16121545 8.71186658 3.32913217 7.41936744 2.5 6.125 C2.0359375 5.40570313 1.571875 4.68640625 1.09375 3.9453125 C0 2 0 2 0 0 Z " fill="#6F99DA" transform="translate(227,246)"/>
<path d="M0 0 C2 1.4375 2 1.4375 4 4 C4.35442445 7.02824418 4.23347235 9.96485939 4 13 C2.42445965 10.11371599 1.53723627 7.46657616 0.875 4.25 C0.70742187 3.45078125 0.53984375 2.6515625 0.3671875 1.828125 C0.24601563 1.22484375 0.12484375 0.6215625 0 0 Z " fill="#6D9DDF" transform="translate(220,226)"/>
<path d="M0 0 C0.99 0.33 1.98 0.66 3 1 C4.3125 4.3125 4.3125 4.3125 5 8 C4.34 9.32 3.68 10.64 3 12 C2.01 8.04 1.02 4.08 0 0 Z " fill="#8DB4E6" transform="translate(347,186)"/>
<path d="M0 0 C0.99 0.33 1.98 0.66 3 1 C3 1.66 3 2.32 3 3 C3.99 3.33 4.98 3.66 6 4 C6 4.66 6 5.32 6 6 C4.02 6 2.04 6 0 6 C0 4.02 0 2.04 0 0 Z " fill="#4484E6" transform="translate(337,137)"/>
<path d="M0 0 C6.52307692 0.61538462 6.52307692 0.61538462 8.9375 2.5625 C9.288125 3.036875 9.63875 3.51125 10 4 C7.36 3.67 4.72 3.34 2 3 C2 2.34 2 1.68 2 1 C1.34 0.67 0.68 0.34 0 0 Z " fill="#9CD1EF" transform="translate(325,224)"/>
<path d="M0 0 C2.64 0.33 5.28 0.66 8 1 C8 2.32 8 3.64 8 5 C4.62496331 3.8141763 2.35277269 2.72426311 0 0 Z " fill="#7CA8E6" transform="translate(326,165)"/>
<path d="M0 0 C0.99 0.66 1.98 1.32 3 2 C3 3.32 3 4.64 3 6 C1.02 6.33 -0.96 6.66 -3 7 C-3 6.34 -3 5.68 -3 5 C-2.34 5 -1.68 5 -1 5 C-0.67 3.35 -0.34 1.7 0 0 Z " fill="#A6D8E9" transform="translate(418,160)"/>
<path d="M0 0 C0.99 0 1.98 0 3 0 C2.67 1.32 2.34 2.64 2 4 C1.34 4 0.68 4 0 4 C-0.66 5.32 -1.32 6.64 -2 8 C-2 4.23312136 -1.76462683 3.08809695 0 0 Z " fill="#89CDE7" transform="translate(434,141)"/>
<path d="M0 0 C1 4 1 4 0 6 C1.98 6.495 1.98 6.495 4 7 C3.34 7.66 2.68 8.32 2 9 C1.01 9 0.02 9 -1 9 C-0.67 6.03 -0.34 3.06 0 0 Z " fill="#94CAEC" transform="translate(355,290)"/>
<path d="M0 0 C2.64 0.33 5.28 0.66 8 1 C8.33 2.32 8.66 3.64 9 5 C5.54074837 3.7508258 2.85306797 2.32472205 0 0 Z " fill="#80A4E7" transform="translate(257,280)"/>
<path d="M0 0 C4.875 2.625 4.875 2.625 6 6 C3.97954558 5.39816251 1.97888961 4.72693904 0 4 C-0.33 3.34 -0.66 2.68 -1 2 C-0.67 1.34 -0.34 0.68 0 0 Z " fill="#6494E1" transform="translate(257,240)"/>
<path d="M0 0 C1.125 3.75 1.125 3.75 0 6 C-0.99 6 -1.98 6 -3 6 C-3 4.35 -3 2.7 -3 1 C-2.01 0.67 -1.02 0.34 0 0 Z " fill="#66BBCE" transform="translate(440,124)"/>
<path d="M0 0 C2.91517292 1.07401108 4.77810176 1.77810176 7 4 C7 4.99 7 5.98 7 7 C6.34 7 5.68 7 5 7 C3.7109375 5.46875 3.7109375 5.46875 2.375 3.5 C1.70597656 2.52546875 1.70597656 2.52546875 1.0234375 1.53125 C0.68570312 1.0259375 0.34796875 0.520625 0 0 Z " fill="#71BBEC" transform="translate(401,271)"/>
<path d="M0 0 C2.64 0 5.28 0 8 0 C8 0.66 8 1.32 8 2 C4.94736336 2.98120464 3.05263664 2.98120464 0 2 C0 1.34 0 0.68 0 0 Z " fill="#448BF3" transform="translate(284,262)"/>
<path d="M0 0 C1.65 0 3.3 0 5 0 C5 0.66 5 1.32 5 2 C3 3.625 3 3.625 1 5 C0.34 4.67 -0.32 4.34 -1 4 C-0.67 2.68 -0.34 1.36 0 0 Z " fill="#4588F1" transform="translate(277,259)"/>
<path d="M0 0 C2.475 0.99 2.475 0.99 5 2 C4.67 2.66 4.34 3.32 4 4 C1.4375 4.625 1.4375 4.625 -1 5 C-0.67 3.35 -0.34 1.7 0 0 Z " fill="#61A8EF" transform="translate(357,242)"/>
<path d="M0 0 C1.31872662 0.39651917 2.62997101 0.81798691 3.9375 1.25 C4.66839844 1.48203125 5.39929688 1.7140625 6.15234375 1.953125 C8 3 8 3 8.75390625 5.109375 C8.83511719 5.73328125 8.91632813 6.3571875 9 7 C8.2575 6.525625 7.515 6.05125 6.75 5.5625 C4.38949985 4.22130673 2.63351523 3.487688 0 3 C0 2.01 0 1.02 0 0 Z " fill="#4884E4" transform="translate(256,243)"/>
<path d="M0 0 C0.33 0 0.66 0 1 0 C3 6.625 3 6.625 3 10 C0 8 0 8 -0.75 5.5625 C-1 3 -1 3 0 0 Z " fill="#83AAE1" transform="translate(251,224)"/>
<path d="M0 0 C0.66 0.33 1.32 0.66 2 1 C2 2.65 2 4.3 2 6 C1.01 6.33 0.02 6.66 -1 7 C-1.04254356 5.00045254 -1.04080783 2.99958364 -1 1 C-0.67 0.67 -0.34 0.34 0 0 Z " fill="#83CCE5" transform="translate(427,157)"/>
<path d="M0 0 C0.66 0 1.32 0 2 0 C0.52307692 4.67692308 0.52307692 4.67692308 -2.125 6.3125 C-3.053125 6.6528125 -3.053125 6.6528125 -4 7 C-2.92598892 4.08482708 -2.22189824 2.22189824 0 0 Z " fill="#4685F1" transform="translate(246,150)"/>
<path d="M0 0 C2.97 0.495 2.97 0.495 6 1 C5.67 1.99 5.34 2.98 5 4 C2.69 4 0.38 4 -2 4 C-2 3.34 -2 2.68 -2 2 C-1.34 2 -0.68 2 0 2 C0 1.34 0 0.68 0 0 Z " fill="#4482E6" transform="translate(321,131)"/>
<path d="M0 0 C2.31 0.33 4.62 0.66 7 1 C5 3 5 3 3.0546875 3.1953125 C1.03645833 3.13020833 -0.98177083 3.06510417 -3 3 C-2.01 2.67 -1.02 2.34 0 2 C0 1.34 0 0.68 0 0 Z " fill="#4886EB" transform="translate(290,129)"/>
<path d="M0 0 C1.32 0.33 2.64 0.66 4 1 C3.6875 2.9375 3.6875 2.9375 3 5 C2.01 5.33 1.02 5.66 0 6 C0 4.02 0 2.04 0 0 Z " fill="#5A9DF1" transform="translate(380,254)"/>
<path d="M0 0 C2.31 0.66 4.62 1.32 7 2 C7.33 3.32 7.66 4.64 8 6 C6.66402348 5.19185349 5.331275 4.37836819 4 3.5625 C3.2575 3.11003906 2.515 2.65757812 1.75 2.19140625 C1.1725 1.79824219 0.595 1.40507812 0 1 C0 0.67 0 0.34 0 0 Z " fill="#A2D2EE" transform="translate(303,218)"/>
<path d="M0 0 C0.66 0 1.32 0 2 0 C2.66 2.31 3.32 4.62 4 7 C3.34 7 2.68 7 2 7 C2 6.34 2 5.68 2 5 C1.34 5 0.68 5 0 5 C-0.5625 3.0625 -0.5625 3.0625 -1 1 C-0.67 0.67 -0.34 0.34 0 0 Z " fill="#6FA5F3" transform="translate(370,171)"/>
<path d="M0 0 C2.125 0.9375 2.125 0.9375 4 2 C3.01 2 2.02 2 1 2 C1 2.66 1 3.32 1 4 C-0.32 4.33 -1.64 4.66 -3 5 C-2.625 3.0625 -2.625 3.0625 -2 1 C-1.34 0.67 -0.68 0.34 0 0 Z " fill="#7CA4E4" transform="translate(272,164)"/>
<path d="M0 0 C0 0.66 0 1.32 0 2 C-0.66 2 -1.32 2 -2 2 C-2 2.66 -2 3.32 -2 4 C-3.9375 3.625 -3.9375 3.625 -6 3 C-6.33 2.34 -6.66 1.68 -7 1 C-4 0 -4 0 0 0 Z " fill="#4988E4" transform="translate(279,161)"/>
<path d="M0 0 C0.33 0.99 0.66 1.98 1 3 C-0.32 4.32 -1.64 5.64 -3 7 C-3.99 6.67 -4.98 6.34 -6 6 C-4.625 4.5 -4.625 4.5 -3 3 C-2.34 3 -1.68 3 -1 3 C-0.67 2.01 -0.34 1.02 0 0 Z " fill="#8BB1DF" transform="translate(245,148)"/>
<path d="M0 0 C3.45925163 1.2491742 6.14693203 2.67527795 9 5 C6.75 5.25 6.75 5.25 4 5 C1.6875 3.0625 1.6875 3.0625 0 1 C0 0.67 0 0.34 0 0 Z " fill="#88ADE3" transform="translate(339,137)"/>
</svg>
